<?xml version="1.0" encoding="utf-8"?>
<!-- Generator: Adobe Illustrator 16.0.0, SVG Export Plug-In . SVG Version: 6.00 Build 0)  -->
<!DOCTYPE svg PUBLIC "-//W3C//DTD SVG 1.1//EN" "http://www.w3.org/Graphics/SVG/1.1/DTD/svg11.dtd">
<svg version="1.1" id="图层_1" xmlns="http://www.w3.org/2000/svg" xmlns:xlink="http://www.w3.org/1999/xlink" x="0px" y="0px"
	 width="1024px" height="1024px" viewBox="0 0 1024 1024" enable-background="new 0 0 1024 1024" xml:space="preserve">
<g>
	<path fill="#272636" d="M943.638,864.528L767.592,688.352c114.536-153.121,103.773-370.553-35.437-509.674
		c-152.945-152.903-400.653-152.903-553.511,0c-152.859,152.771-152.859,400.433,0,553.335
		c139.296,139.253,356.598,150.104,509.849,35.48l176.134,176.134c21.788,21.831,57.137,21.831,78.923,0
		C965.512,921.577,965.512,886.315,943.638,864.528L943.638,864.528L943.638,864.528z M653.057,652.915
		c-109.283,109.109-286.161,109.109-395.271,0c-109.154-109.197-109.154-286.03,0-395.185
		c109.109-109.153,286.118-109.153,395.271,0C762.168,366.885,762.168,543.718,653.057,652.915L653.057,652.915L653.057,652.915z
		 M653.057,652.915"/>
</g>
</svg>
