<?xml version="1.0" standalone="no"?> 
<!DOCTYPE svg PUBLIC "-//W3C//DTD SVG 1.1//EN" "http://www.w3.org/Graphics/SVG/1.1/DTD/svg11.dtd" >
<svg xmlns="http://www.w3.org/2000/svg">
<defs>
  <font id="BizIcon" horiz-adv-x="26">
    <font-face font-family="BizIcon"
      units-per-em="24" ascent="24"
      descent="0" />
    <missing-glyph horiz-adv-x="0" />
    <glyph glyph-name="ic_3d_rotation"
      unicode="&#xF101;"
      horiz-adv-x="24" d=" M7.52 2.52C4.25 4.06 1.91 7.24 1.55 11H0.05C0.56 4.84 5.71 0 12 0L12.66 0.03L8.85 3.84L7.52 2.52zM8.41 9.04C8.22 9.04 8.04 9.07 7.89 9.12C7.73 9.18 7.6 9.25 7.49 9.36C7.38 9.46 7.29 9.58 7.23 9.73C7.17 9.87 7.14 10.03 7.14 10.2H5.84C5.84 9.84 5.91 9.52 6.05 9.25C6.19 8.98 6.38 8.75 6.61 8.56C6.85 8.38 7.12 8.24 7.43 8.15C7.73 8.05 8.05 8 8.39 8C8.76 8 9.11 8.05 9.42 8.15C9.74 8.25 10.02 8.4 10.25 8.59S10.67 9.02 10.8 9.31C10.93 9.6 11 9.92 11 10.28C11 10.47 10.98 10.66 10.93 10.84C10.88 11.02 10.81 11.19 10.7 11.35C10.6 11.51 10.46 11.65 10.3 11.78C10.13 11.91 9.93 12.01 9.69 12.09C9.89 12.18 10.06 12.29 10.21 12.42C10.36 12.55 10.48 12.69 10.58 12.84C10.68 12.99 10.75 13.14 10.8 13.3C10.85 13.46 10.87 13.62 10.87 13.78C10.87 14.14 10.81 14.46 10.69 14.74C10.57 15.02 10.4 15.25 10.18 15.43C9.98 15.62 9.71 15.76 9.41 15.86C9.1 15.95 8.76 16 8.39 16C8.03 16 7.7 15.95 7.39 15.84C7.09 15.73 6.82 15.58 6.6 15.39C6.39 15.2 6.22 14.98 6.09 14.72C5.97 14.46 5.91 14.18 5.91 13.87H7.21C7.21 14.04 7.24 14.19 7.3 14.32S7.44 14.57 7.55 14.66C7.66 14.75 7.78 14.83 7.93 14.88C8.08 14.93 8.23 14.96 8.41 14.96C8.81 14.96 9.11 14.86 9.3 14.65C9.49 14.45 9.59 14.16 9.59 13.79C9.59 13.61 9.56 13.45 9.51 13.3C9.46 13.15 9.37 13.03 9.26 12.93C9.15 12.83 9.01 12.75 8.85 12.69C8.69 12.63 8.49 12.6 8.27 12.6H7.5V11.57H8.27C8.49 11.57 8.69 11.55 8.87 11.5S9.2 11.37 9.32 11.27C9.44 11.16 9.54 11.03 9.61 10.87C9.68 10.71 9.71 10.52 9.71 10.3C9.71 9.89 9.59 9.58 9.36 9.37C9.13 9.14 8.81 9.04 8.41 9.04zM16.96 14.96C16.64 15.29 16.26 15.55 15.82 15.73C15.39 15.91 14.9 16 14.36 16H12V8H14.3C14.85 8 15.36 8.09 15.81 8.27C16.26 8.45 16.65 8.7 16.97 9.03C17.29 9.36 17.54 9.76 17.71 10.22C17.88 10.69 17.97 11.21 17.97 11.79V12.19C17.97 12.77 17.88 13.29 17.71 13.76C17.53 14.23 17.28 14.63 16.96 14.96zM16.57 11.8C16.57 11.38 16.52 11.01 16.43 10.67C16.33 10.34 16.19 10.05 16 9.82C15.81 9.59 15.57 9.41 15.29 9.29C15 9.17 14.67 9.11 14.3 9.11H13.39V14.88H14.36C15.08 14.88 15.63 14.65 16 14.19C16.38 13.73 16.57 13.07 16.57 12.2V11.8zM12 24L11.34 23.97L15.15 20.16L16.48 21.49C19.75 19.94 22.09 16.77 22.44 13.01H23.94C23.44 19.16 18.29 24 12 24z" />
    <glyph glyph-name="ic_accessibility"
      unicode="&#xF102;"
      horiz-adv-x="24" d=" M12 22C13.1 22 14 21.1 14 20S13.1 18 12 18S10 18.9 10 20S10.9 22 12 22zM21 15H15V2H13V8H11V2H9V15H3V17H21V15z" />
    <glyph glyph-name="ic_account_balance"
      unicode="&#xF103;"
      horiz-adv-x="24" d=" M4 14V7H7V14H4zM10 14V7H13V14H10zM2 2H21V5H2V2zM16 14V7H19V14H16zM11.5 23L2 18V16H21V18L11.5 23z" />
    <glyph glyph-name="ic_account_balance_wallet"
      unicode="&#xF104;"
      horiz-adv-x="24" d=" M21 6V5C21 3.9 20.1 3 19 3H5C3.89 3 3 3.9 3 5V19C3 20.1 3.89 21 5 21H19C20.1 21 21 20.1 21 19V18H12C10.89 18 10 17.1 10 16V8C10 6.9 10.89 6 12 6H21zM12 8H22V16H12V8zM16 10.5C15.17 10.5 14.5 11.17 14.5 12S15.17 13.5 16 13.5S17.5 12.83 17.5 12S16.83 10.5 16 10.5z" />
    <glyph glyph-name="ic_account_box"
      unicode="&#xF105;"
      horiz-adv-x="24" d=" M3 19V5C3 3.9 3.89 3 5 3H19C20.1 3 21 3.9 21 5V19C21 20.1 20.1 21 19 21H5C3.89 21 3 20.1 3 19zM15 15C15 13.34 13.66 12 12 12S9 13.34 9 15S10.34 18 12 18S15 16.66 15 15zM6 7C6 9 10 10.1 12 10.1S18 9 18 7V6H6V7z" />
    <glyph glyph-name="ic_account_circle"
      unicode="&#xF106;"
      horiz-adv-x="24" d=" M12 22C6.48 22 2 17.52 2 12S6.48 2 12 2S22 6.48 22 12S17.52 22 12 22zM12 19C13.66 19 15 17.66 15 16S13.66 13 12 13S9 14.34 9 16S10.34 19 12 19zM12 4.8C9.5 4.8 7.29 6.08 6 8.02C6.03 10.01 10 11.1 12 11.1C13.99 11.1 17.97 10.01 18 8.02C16.71 6.08 14.5 4.8 12 4.8z" />
    <glyph glyph-name="ic_add_shopping_cart"
      unicode="&#xF107;"
      horiz-adv-x="24" d=" M11 15H13V18H16V20H13V23H11V20H8V18H11V15zM7 6C5.9 6 5.01 5.1 5.01 4S5.9 2 7 2S9 2.9 9 4S8.1 6 7 6zM17 6C15.9 6 15.01 5.1 15.01 4S15.9 2 17 2S19 2.9 19 4S18.1 6 17 6zM7.17 9.25L7.2 9.37L8.1 11H15.55C16.3 11 16.96 11.41 17.3 12.03L21.16 19.04L19.42 20H19.41L18.31 18L15.55 13H8.53L8.4 13.27L6.16 18L5.21 20L4.27 22H1V20H3L6.6 12.41L5.25 9.96C5.09 9.68 5 9.35 5 9C5 7.9 5.9 7 7 7H19V9H7.42C7.29 9 7.17 9.11 7.17 9.25z" />
    <glyph glyph-name="ic_alarm"
      unicode="&#xF108;"
      horiz-adv-x="24" d=" M22 18.28L17.4 22.14L16.11 20.61L20.71 16.75L22 18.28zM7.88 20.61L6.6 22.14L2 18.29L3.29 16.76L7.88 20.61zM12.5 16H11V10L15.75 7.15L16.5 8.38L12.5 10.75V16zM12 20C7.03 20 3 15.97 3 11S7.02 2 12 2C16.97 2 21 6.03 21 11S16.97 20 12 20zM12 4C8.13 4 5 7.13 5 11S8.13 18 12 18S19 14.87 19 11S15.87 4 12 4z" />
    <glyph glyph-name="ic_alarm_add"
      unicode="&#xF109;"
      horiz-adv-x="24" d=" M7.88 20.61L6.6 22.14L2 18.29L3.29 16.76L7.88 20.61zM22 18.28L17.4 22.14L16.11 20.61L20.71 16.75L22 18.28zM12 20C7.03 20 3 15.97 3 11S7.02 2 12 2C16.97 2 21 6.03 21 11S16.97 20 12 20zM12 4C8.13 4 5 7.13 5 11S8.13 18 12 18S19 14.87 19 11S15.87 4 12 4zM13 15H11V12H8V10H11V7H13V10H16V12H13V15z" />
    <glyph glyph-name="ic_alarm_off"
      unicode="&#xF10A;"
      horiz-adv-x="24" d=" M12 18C15.87 18 19 14.87 19 11C19 10.16 18.84 9.35 18.57 8.6L20.09 7.08C20.67 8.27 21 9.59 21 11C21 15.97 16.97 20 12 20C10.59 20 9.27 19.67 8.08 19.09L9.6 17.57C10.35 17.84 11.16 18 12 18zM22 18.28L17.4 22.14L16.11 20.61L20.71 16.75L22 18.28zM2.92 21.71L1.65 20.43L2.98 19.1L1.87 18.17L3.29 16.75L4.4 17.69L5.2 16.89C3.83 15.31 3 13.25 3 11C3 6.03 7.02 2 12 2C14.25 2 16.31 2.83 17.89 4.2L20.09 2L21.36 3.27L3.89 20.73L2.92 21.71zM16.47 5.61C15.26 4.61 13.7 4 12 4C8.13 4 5 7.13 5 11C5 12.7 5.61 14.26 6.61 15.47L16.47 5.61zM8.02 20.72L6.6 22.14L5.74 21.43L7.16 20.01L8.02 20.72z" />
    <glyph glyph-name="ic_alarm_on"
      unicode="&#xF10B;"
      horiz-adv-x="24" d=" M22 18.28L17.4 22.14L16.11 20.61L20.71 16.75L22 18.28zM7.88 20.61L6.6 22.14L2 18.29L3.29 16.76L7.88 20.61zM12 20C7.03 20 3 15.97 3 11S7.02 2 12 2C16.97 2 21 6.03 21 11S16.97 20 12 20zM12 4C8.13 4 5 7.13 5 11S8.13 18 12 18S19 14.87 19 11S15.87 4 12 4zM10.54 9.47L8.41 11.6L7.35 10.54L10.53 7.36L16.53 13.36L15.47 14.42L10.54 9.47z" />
    <glyph glyph-name="ic_android"
      unicode="&#xF10C;"
      horiz-adv-x="24" d=" M6 6C6 5.45 6.45 5 7 5H8V1.5C8 0.67 8.67 0 9.5 0S11 0.67 11 1.5V5H13V1.5C13 0.67 13.67 0 14.5 0S16 0.67 16 1.5V5H17C17.55 5 18 5.45 18 6V16H6V6zM3.5 16C2.67 16 2 15.33 2 14.5V7.5C2 6.67 2.67 6 3.5 6S5 6.67 5 7.5V14.5C5 15.33 4.33 16 3.5 16zM20.5 16C19.67 16 19 15.33 19 14.5V7.5C19 6.67 19.67 6 20.5 6S22 6.67 22 7.5V14.5C22 15.33 21.33 16 20.5 16zM15.53 21.84L16.83 23.14C17.03 23.34 17.03 23.65 16.83 23.85C16.63 24.05 16.32 24.05 16.12 23.85L14.64 22.37C13.85 22.77 12.95 23 12 23C11.04 23 10.14 22.77 9.34 22.37L7.85 23.85C7.65 24.05 7.34 24.05 7.14 23.85C6.94 23.65 6.94 23.34 7.14 23.14L8.45 21.83C6.97 20.74 6 18.99 6 17H18C18 18.99 17.03 20.75 15.53 21.84zM10 19H9V20H10V19zM15 19H14V20H15V19z" />
    <glyph glyph-name="ic_announcement"
      unicode="&#xF10D;"
      horiz-adv-x="24" d=" M20 22H4C2.9 22 2.01 21.1 2.01 20L2 2L6 6H20C21.1 6 22 6.9 22 8V20C22 21.1 21.1 22 20 22zM13 13H11V19H13V13zM13 9H11V11H13V9z" />
    <glyph glyph-name="ic_aspect_ratio"
      unicode="&#xF10E;"
      horiz-adv-x="24" d=" M19 12H17V9H14V7H19V12zM7 15H10V17H5V12H7V15zM21 21H3C1.9 21 1 20.1 1 19V5C1 3.9 1.9 3 3 3H21C22.1 3 23 3.9 23 5V19C23 20.1 22.1 21 21 21zM21 4.99H3V19.01H21V4.99z" />
    <glyph glyph-name="ic_assessment"
      unicode="&#xF10F;"
      horiz-adv-x="24" d=" M19 21H5C3.9 21 3 20.1 3 19V5C3 3.9 3.9 3 5 3H19C20.1 3 21 3.9 21 5V19C21 20.1 20.1 21 19 21zM9 7H7V14H9V7zM13 7H11V17H13V7zM17 7H15V11H17V7z" />
    <glyph glyph-name="ic_assignment"
      unicode="&#xF110;"
      horiz-adv-x="24" d=" M19 21H14.82C14.4 22.16 13.3 23 12 23C10.7 23 9.6 22.16 9.18 21H5C3.9 21 3 20.1 3 19V5C3 3.9 3.9 3 5 3H19C20.1 3 21 3.9 21 5V19C21 20.1 20.1 21 19 21zM12 21C12.55 21 13 20.55 13 20S12.55 19 12 19S11 19.45 11 20S11.45 21 12 21zM14 7H7V9H14V7zM17 11H7V13H17V11zM17 15H7V17H17V15z" />
    <glyph glyph-name="ic_assignment_ind"
      unicode="&#xF111;"
      horiz-adv-x="24" d=" M19 21H14.82C14.4 22.16 13.3 23 12 23C10.7 23 9.6 22.16 9.18 21H5C3.9 21 3 20.1 3 19V5C3 3.9 3.9 3 5 3H19C20.1 3 21 3.9 21 5V19C21 20.1 20.1 21 19 21zM12 21C12.55 21 13 20.55 13 20S12.55 19 12 19S11 19.45 11 20S11.45 21 12 21zM12 17C13.66 17 15 15.66 15 14S13.66 11 12 11S9 12.34 9 14S10.34 17 12 17zM18 5H6V6.4C6 8.4 10 9.5 12 9.5S18 8.4 18 6.4V5z" />
    <glyph glyph-name="ic_assignment_late"
      unicode="&#xF112;"
      horiz-adv-x="24" d=" M19 21H14.82C14.4 22.16 13.3 23 12 23C10.7 23 9.6 22.16 9.18 21H5C3.9 21 3 20.1 3 19V5C3 3.9 3.9 3 5 3H19C20.1 3 21 3.9 21 5V19C21 20.1 20.1 21 19 21zM13 6H11V8H13V6zM13 10H11V16H13V10zM12 19C11.45 19 11 19.45 11 20S11.45 21 12 21S13 20.55 13 20S12.55 19 12 19z" />
    <glyph glyph-name="ic_assignment_return"
      unicode="&#xF113;"
      horiz-adv-x="24" d=" M19 21H14.82C14.4 22.16 13.3 23 12 23C10.7 23 9.6 22.16 9.18 21H5C3.9 21 3 20.1 3 19V5C3 3.9 3.9 3 5 3H19C20.1 3 21 3.9 21 5V19C21 20.1 20.1 21 19 21zM12 21C12.55 21 13 20.55 13 20S12.55 19 12 19S11 19.45 11 20S11.45 21 12 21zM16 9H12V6L7 11L12 16V13H16V9z" />
    <glyph glyph-name="ic_assignment_returned"
      unicode="&#xF114;"
      horiz-adv-x="24" d=" M19 21H14.82C14.4 22.16 13.3 23 12 23C10.7 23 9.6 22.16 9.18 21H5C3.9 21 3 20.1 3 19V5C3 3.9 3.9 3 5 3H19C20.1 3 21 3.9 21 5V19C21 20.1 20.1 21 19 21zM12 21C12.55 21 13 20.55 13 20S12.55 19 12 19S11 19.45 11 20S11.45 21 12 21zM12 6L7 11H10V15H14V11H17L12 6z" />
    <glyph glyph-name="ic_assignment_turned_in"
      unicode="&#xF115;"
      horiz-adv-x="24" d=" M19 21H14.82C14.4 22.16 13.3 23 12 23C10.7 23 9.6 22.16 9.18 21H5C3.9 21 3 20.1 3 19V5C3 3.9 3.9 3 5 3H19C20.1 3 21 3.9 21 5V19C21 20.1 20.1 21 19 21zM12 21C12.55 21 13 20.55 13 20S12.55 19 12 19S11 19.45 11 20S11.45 21 12 21zM10 7L6 11L7.41 12.41L10 9.83L16.59 16.42L18 15L10 7z" />
    <glyph glyph-name="ic_autorenew"
      unicode="&#xF116;"
      horiz-adv-x="24" d=" M12 18V15L16 19L12 23V20C7.58 20 4 16.42 4 12C4 10.43 4.46 8.97 5.24 7.74L6.7 9.2C6.25 10.03 6 10.99 6 12C6 15.31 8.69 18 12 18zM18.76 16.26L17.3 14.8C17.74 13.96 18 13.01 18 12C18 8.69 15.31 6 12 6V9L8 5L12 1V4C16.42 4 20 7.58 20 12C20 13.57 19.54 15.03 18.76 16.26z" />
    <glyph glyph-name="ic_backup"
      unicode="&#xF117;"
      horiz-adv-x="24" d=" M19.35 13.96C18.67 17.41 15.64 20 12 20C9.11 20 6.6 18.36 5.35 15.96C2.34 15.64 0 13.09 0 10C0 6.69 2.69 4 6 4H19C21.76 4 24 6.24 24 9C24 11.64 21.95 13.78 19.35 13.96zM14 11V7H10V11H7L12 16L17 11H14z" />
    <glyph glyph-name="ic_book"
      unicode="&#xF118;"
      horiz-adv-x="24" d=" M18 22H6C4.9 22 4 21.1 4 20V4C4 2.9 4.9 2 6 2H18C19.1 2 20 2.9 20 4V20C20 21.1 19.1 22 18 22zM6 20H11V12L8.5 13.5L6 12V20z" />
    <glyph glyph-name="ic_bookmark"
      unicode="&#xF119;"
      horiz-adv-x="24" d=" M17 21H7C5.9 21 5.01 20.1 5.01 19L5 3L12 6L19 3V19C19 20.1 18.1 21 17 21z" />
    <glyph glyph-name="ic_bookmark_border"
      unicode="&#xF11A;"
      horiz-adv-x="24" d=" M17 21H7C5.9 21 5.01 20.1 5.01 19L5 3L12 6L19 3V19C19 20.1 18.1 21 17 21zM17 6L12 8.18L7 6V19H17V6z" />
    <glyph glyph-name="ic_bug_report"
      unicode="&#xF11B;"
      horiz-adv-x="24" d=" M20 16H17.19C16.74 16.78 16.12 17.45 15.37 17.96L17 19.59L15.59 21L13.42 18.83C12.96 18.94 12.49 19 12 19C11.51 19 11.04 18.94 10.59 18.83L8.41 21L7 19.59L8.62 17.96C7.88 17.45 7.26 16.78 6.81 16H4V14H6.09C6.04 13.67 6 13.34 6 13V12H4V10H6V9C6 8.66 6.04 8.33 6.09 8H4V6H6.81C7.85 4.21 9.78 3 12 3S16.15 4.21 17.19 6H20V8H17.91C17.96 8.33 18 8.66 18 9V10H20V12H18V13C18 13.34 17.96 13.67 17.91 14H20V16zM14 8H10V10H14V8zM14 12H10V14H14V12z" />
    <glyph glyph-name="ic_build"
      unicode="&#xF11C;"
      horiz-adv-x="24" d=" M22.7 5L13.6 14.1C14.5 16.4 14 19.1 12.1 21C10.1 23 7.1 23.4 4.7 22.3L9 18L6 15L1.6 19.3C0.4 16.9 0.9 13.9 2.9 11.9C4.8 10 7.5 9.5 9.8 10.4L18.9 1.3C19.3 0.9 19.9 0.9 20.3 1.3L22.6 3.6C23.1 4 23.1 4.7 22.7 5z" />
    <glyph glyph-name="ic_cached"
      unicode="&#xF11D;"
      horiz-adv-x="24" d=" M19 16L15 12H18C18 8.69 15.31 6 12 6C10.99 6 10.03 6.25 9.2 6.7L7.74 5.24C8.97 4.46 10.43 4 12 4C16.42 4 20 7.58 20 12H23L19 16zM6 12C6 15.31 8.69 18 12 18C13.01 18 13.97 17.75 14.8 17.3L16.26 18.76C15.03 19.54 13.57 20 12 20C7.58 20 4 16.42 4 12H1L5 8L9 12H6z" />
    <glyph glyph-name="ic_camera_enhance"
      unicode="&#xF11E;"
      horiz-adv-x="24" d=" M9 21L7.17 19H4C2.9 19 2 18.1 2 17V5C2 3.9 2.9 3 4 3H20C21.1 3 22 3.9 22 5V17C22 18.1 21.1 19 20 19H16.83L15 21H9zM12 6C9.24 6 7 8.24 7 11S9.24 16 12 16S17 13.76 17 11S14.76 6 12 6z M12 7L13.25 9.75L16 11L13.25 12.25L12 15L10.75 12.25L8 11L10.75 9.75z" />
    <glyph glyph-name="ic_card_giftcard"
      unicode="&#xF11F;"
      horiz-adv-x="24" d=" M20 18H17.82C17.93 18.31 18 18.65 18 19C18 20.66 16.66 22 15 22C13.95 22 13.04 21.46 12.5 20.65L12 19.98L11.5 20.66C10.96 21.46 10.05 22 9 22C7.34 22 6 20.66 6 19C6 18.65 6.07 18.31 6.18 18H4C2.89 18 2.01 17.11 2.01 16L2 5C2 3.89 2.89 3 4 3H20C21.11 3 22 3.89 22 5V16C22 17.11 21.11 18 20 18zM15 20C15.55 20 16 19.55 16 19S15.55 18 15 18S14 18.45 14 19S14.45 20 15 20zM9 20C9.55 20 10 19.55 10 19S9.55 18 9 18S8 18.45 8 19S8.45 20 9 20zM20 5H4V7H20V5zM20 10H4V16H9.08L7 13.17L8.62 12L11 15.24L12 16.6L13 15.24L15.38 12L17 13.17L14.92 16H20V10z" />
    <glyph glyph-name="ic_card_membership"
      unicode="&#xF120;"
      horiz-adv-x="24" d=" M20 22H4C2.89 22 2 21.11 2 20V9C2 7.89 2.89 7 4 7H8V2L12 4L16 2V7H20C21.11 7 22 7.89 22 9V20C22 21.11 21.11 22 20 22zM20 9H4V11H20V9zM20 14H4V20H20V14z" />
    <glyph glyph-name="ic_card_travel"
      unicode="&#xF121;"
      horiz-adv-x="24" d=" M20 18H17V20C17 21.11 16.11 22 15 22H9C7.89 22 7 21.11 7 20V18H4C2.89 18 2 17.11 2 16V5C2 3.89 2.89 3 4 3H20C21.11 3 22 3.89 22 5V16C22 17.11 21.11 18 20 18zM9 20H15V18H9V20zM20 5H4V7H20V5zM20 10H4V16H7V14H9V16H15V14H17V16H20V10z" />
    <glyph glyph-name="ic_change_history"
      unicode="&#xF122;"
      horiz-adv-x="24" d=" M12 16.23L18.39 6H5.61L12 16.23M12 20L2 4H22L12 20z" />
    <glyph glyph-name="ic_check_circle"
      unicode="&#xF123;"
      horiz-adv-x="24" d=" M12 22C6.48 22 2 17.52 2 12S6.48 2 12 2S22 6.48 22 12S17.52 22 12 22zM10 7L5 12L6.41 13.41L10 9.83L17.59 17.42L19 16L10 7z" />
    <glyph glyph-name="ic_chrome_reader_mode"
      unicode="&#xF124;"
      horiz-adv-x="24" d=" M13 12H20V10.5H13zM13 14.5H20V13H13zM13 9.5H20V8H13zM21 20H3C1.9 20 1 19.1 1 18V5C1 3.9 1.9 3 3 3H21C22.1 3 23 3.9 23 5V18C23 19.1 22.1 20 21 20zM21 5H12V18H21V5z" />
    <glyph glyph-name="ic_class"
      unicode="&#xF125;"
      horiz-adv-x="24" d=" M18 22H6C4.9 22 4 21.1 4 20V4C4 2.9 4.9 2 6 2H18C19.1 2 20 2.9 20 4V20C20 21.1 19.1 22 18 22zM6 20H11V12L8.5 13.5L6 12V20z" />
    <glyph glyph-name="ic_code"
      unicode="&#xF126;"
      horiz-adv-x="24" d=" M9.4 7.4L4.8 12L9.4 16.6L8 18L2 12L8 6L9.4 7.4zM14.6 7.4L19.2 12L14.6 16.6L16 18L22 12L16 6L14.6 7.4z" />
    <glyph glyph-name="ic_credit_card"
      unicode="&#xF127;"
      horiz-adv-x="24" d=" M20 20H4C2.89 20 2.01 19.11 2.01 18L2 6C2 4.89 2.89 4 4 4H20C21.11 4 22 4.89 22 6V18C22 19.11 21.11 20 20 20zM20 6H4V12H20V6zM20 16H4V18H20V16z" />
    <glyph glyph-name="ic_dashboard"
      unicode="&#xF128;"
      horiz-adv-x="24" d=" M3 11H11V21H3V11zM3 3H11V9H3V3zM13 3H21V13H13V3zM13 21V15H21V21H13z" />
    <glyph glyph-name="ic_delete"
      unicode="&#xF129;"
      horiz-adv-x="24" d=" M6 5C6 3.9 6.9 3 8 3H16C17.1 3 18 3.9 18 5V17H6V5zM19 20H15.5L14.5 21H9.5L8.5 20H5V18H19V20z" />
    <glyph glyph-name="ic_description"
      unicode="&#xF12A;"
      horiz-adv-x="24" d=" M14 22H6C4.9 22 4.01 21.1 4.01 20L4 4C4 2.9 4.89 2 5.99 2H18C19.1 2 20 2.9 20 4V16L14 22zM16 6H8V8H16V6zM16 10H8V12H16V10zM13 15V20.5L18.5 15H13z" />
    <glyph glyph-name="ic_dns"
      unicode="&#xF12B;"
      horiz-adv-x="24" d=" M20 11H4C3.45 11 3 10.55 3 10V4C3 3.45 3.45 3 4 3H20C20.55 3 21 3.45 21 4V10C21 10.55 20.55 11 20 11zM7 5C5.9 5 5 5.9 5 7S5.9 9 7 9S9 8.1 9 7S8.1 5 7 5zM20 21H4C3.45 21 3 20.55 3 20V14C3 13.45 3.45 13 4 13H20C20.55 13 21 13.45 21 14V20C21 20.55 20.55 21 20 21zM7 15C5.9 15 5 15.9 5 17S5.9 19 7 19S9 18.1 9 17S8.1 15 7 15z" />
    <glyph glyph-name="ic_done"
      unicode="&#xF12C;"
      horiz-adv-x="24" d=" M9 7.8L4.8 12L3.4 10.6L9 5L21 17L19.6 18.4L9 7.8z" />
    <glyph glyph-name="ic_done_all"
      unicode="&#xF12D;"
      horiz-adv-x="24" d=" M18 17L16.59 18.41L10.25 12.07L11.66 10.66L18 17zM22.24 18.41L11.66 7.83L7.48 12L6.07 10.59L11.66 5L23.66 17L22.24 18.41zM0.41 10.59L6 5L7.41 6.41L1.83 12L0.41 10.59z" />
    <glyph glyph-name="ic_eject"
      unicode="&#xF12E;"
      horiz-adv-x="24" d=" M5 7H19V5H5zM12 19L5.33 9H18.67z" />
    <glyph glyph-name="ic_event"
      unicode="&#xF12F;"
      horiz-adv-x="24" d=" M17 12H12V7H17V12zM16 23V21H8V23H6V21H5C3.89 21 3.01 20.1 3.01 19L3 5C3 3.9 3.89 3 5 3H19C20.1 3 21 3.9 21 5V19C21 20.1 20.1 21 19 21H18V23H16zM19 5H5V16H19V5z" />
    <glyph glyph-name="ic_event_seat"
      unicode="&#xF130;"
      horiz-adv-x="24" d=" M0 24H24V0H0V24z M4 6V3H7V6H17V3H20V9H4zM19 14H22V11H19zM2 14H5V11H2zM17 11H7V19C7 20.1 7.9 21 9 21H15C16.1 21 17 20.1 17 19V11z" />
    <glyph glyph-name="ic_exit_to_app"
      unicode="&#xF131;"
      horiz-adv-x="24" d=" M10.09 8.41L11.5 7L16.5 12L11.5 17L10.09 15.59L12.67 13H3V11H12.67L10.09 8.41zM19 21H5C3.89 21 3 20.1 3 19V15H5V19H19V5H5V9H3V5C3 3.9 3.89 3 5 3H19C20.1 3 21 3.9 21 5V19C21 20.1 20.1 21 19 21z" />
    <glyph glyph-name="ic_explore"
      unicode="&#xF132;"
      horiz-adv-x="24" d=" M12 13.1C11.39 13.1 10.9 12.61 10.9 12S11.39 10.9 12 10.9C12.61 10.9 13.1 11.39 13.1 12S12.61 13.1 12 13.1zM12 22C6.48 22 2 17.52 2 12S6.48 2 12 2S22 6.48 22 12S17.52 22 12 22zM14.19 9.81L6 6L9.81 14.19L18 18L14.19 9.81z" />
    <glyph glyph-name="ic_extension"
      unicode="&#xF133;"
      horiz-adv-x="24" d=" M20.5 13H19V17C19 18.1 18.1 19 17 19H13V20.5C13 21.88 11.88 23 10.5 23S8 21.88 8 20.5V19H4C2.9 19 2.01 18.1 2.01 17V13.2H3.5C4.99 13.2 6.2 11.99 6.2 10.5S4.99 7.8 3.5 7.8H2V4C2 2.9 2.9 2 4 2H7.8V3.5C7.8 4.99 9.01 6.2 10.5 6.2C11.99 6.2 13.2 4.99 13.2 3.5V2H17C18.1 2 19 2.9 19 4V8H20.5C21.88 8 23 9.12 23 10.5S21.88 13 20.5 13z" />
    <glyph glyph-name="ic_face"
      unicode="&#xF134;"
      horiz-adv-x="24" d=" M9 12.25C8.31 12.25 7.75 11.69 7.75 11S8.31 9.75 9 9.75S10.25 10.31 10.25 11S9.69 12.25 9 12.25zM15 12.25C14.31 12.25 13.75 11.69 13.75 11S14.31 9.75 15 9.75S16.25 10.31 16.25 11S15.69 12.25 15 12.25zM12 22C6.48 22 2 17.52 2 12S6.48 2 12 2S22 6.48 22 12S17.52 22 12 22zM12 4C7.59 4 4 7.59 4 12C4 12.29 4.02 12.58 4.05 12.86C6.41 13.91 8.28 15.84 9.26 18.23C11.07 15.67 14.05 14 17.42 14C18.2 14 18.95 14.09 19.67 14.26C19.88 13.55 20 12.79 20 12C20 7.59 16.41 4 12 4z" />
    <glyph glyph-name="ic_favorite"
      unicode="&#xF135;"
      horiz-adv-x="24" d=" M12 2.65L10.55 3.97C5.4 8.64 2 11.72 2 15.5C2 18.58 4.42 21 7.5 21C9.24 21 10.91 20.19 12 18.91C13.09 20.19 14.76 21 16.5 21C19.58 21 22 18.58 22 15.5C22 11.72 18.6 8.64 13.45 3.96L12 2.65z" />
    <glyph glyph-name="ic_favorite_border"
      unicode="&#xF136;"
      horiz-adv-x="24" d=" M16.5 21C14.76 21 13.09 20.19 12 18.91C10.91 20.19 9.24 21 7.5 21C4.42 21 2 18.58 2 15.5C2 11.72 5.4 8.64 10.55 3.96L12 2.65L13.45 3.97C18.6 8.64 22 11.72 22 15.5C22 18.58 19.58 21 16.5 21zM12.1 5.45L12 5.35L11.9 5.45C7.14 9.76 4 12.61 4 15.5C4 17.5 5.5 19 7.5 19C9.04 19 10.54 18.01 11.07 16.64H12.94C13.46 18.01 14.96 19 16.5 19C18.5 19 20 17.5 20 15.5C20 12.61 16.86 9.76 12.1 5.45z" />
    <glyph glyph-name="ic_feedback"
      unicode="&#xF137;"
      horiz-adv-x="24" d=" M20 22H4C2.9 22 2.01 21.1 2.01 20L2 2L6 6H20C21.1 6 22 6.9 22 8V20C22 21.1 21.1 22 20 22zM13 10H11V12H13V10zM13 14H11V18H13V14z" />
    <glyph glyph-name="ic_find_in_page"
      unicode="&#xF138;"
      horiz-adv-x="24" d=" M20 4.41V16L14 22H6C4.9 22 4.01 21.1 4.01 20L4 4C4 2.9 4.89 2 5.99 2H18C18.45 2 18.85 2.15 19.19 2.4L14.76 6.83C13.96 6.31 13.02 6 12 6C9.24 6 7 8.24 7 11S9.24 16 12 16S17 13.76 17 11C17 9.98 16.69 9.04 16.17 8.25L20 4.41zM9 11C9 9.34 10.34 8 12 8S15 9.34 15 11S13.66 14 12 14S9 12.66 9 11z" />
    <glyph glyph-name="ic_find_replace"
      unicode="&#xF139;"
      horiz-adv-x="24" d=" M11 18C12.38 18 13.63 17.44 14.54 16.54L12 14H18V20L15.95 17.95C14.68 19.22 12.93 20 11 20C7.47 20 4.57 17.39 4.08 14H6.1C6.56 16.28 8.58 18 11 18zM16.64 8.86C17.3 9.76 17.76 10.83 17.92 12H15.9C15.44 9.72 13.42 8 11 8C9.62 8 8.37 8.56 7.46 9.46L10 12H4V6L6.05 8.05C7.32 6.78 9.07 6 11 6C12.55 6 13.98 6.51 15.14 7.36L20 2.51L21.49 4L16.64 8.86z" />
    <glyph glyph-name="ic_flight_land"
      unicode="&#xF13A;"
      horiz-adv-x="24" d=" M0 24H24V0H0V24z M0 24H24V0H0V24z M2.5 5H21.5V3H2.5zM9.68 10.73L14.03 9.57L19.34 8.15C20.14 7.94 20.96 8.41 21.18 9.21C21.39 10.01 20.92 10.83 20.12 11.05L14.81 12.47L12.05 21.49L10.12 22V13.72L5.15 15.05L4.22 17.37L2.77 17.76V12.59L4.37 12.16L9.68 10.73z" />
    <glyph glyph-name="ic_flight_takeoff"
      unicode="&#xF13B;"
      horiz-adv-x="24" d=" M0 24H24V0H0V24z M2.5 5H21.5V3H2.5zM22.07 14.36C21.86 15.16 21.03 15.64 20.23 15.42L14.92 14L8.02 20.43L6.09 19.92L10.23 12.75L5.26 11.42L3.29 12.96L1.84 12.57L3.66 9.41L4.43 8.08L6.03 8.51L11.34 9.93L15.69 11.09L21 12.51C21.81 12.74 22.28 13.56 22.07 14.36z" />
    <glyph glyph-name="ic_flip_to_back"
      unicode="&#xF13C;"
      horiz-adv-x="24" d=" M9 17H7V15H9V17zM9 13H7V11H9V13zM9 21C7.89 21 7 20.1 7 19H9V21zM13 9H11V7H13V9zM19 21V19H21C21 20.1 20.1 21 19 21zM13 21H11V19H13V21zM9 7V9H7C7 7.9 7.89 7 9 7zM19 11H21V13H19V11zM19 15H21V17H19V15zM19 7C20.1 7 21 7.9 21 9H19V7zM5 17H3V5C3 3.9 3.89 3 5 3H17V5H5V17zM15 19H17V21H15V19zM15 7H17V9H15V7z" />
    <glyph glyph-name="ic_flip_to_front"
      unicode="&#xF13D;"
      horiz-adv-x="24" d=" M3 11H5V13H3V11zM3 7H5V9H3V7zM5 3V5H3C3 3.9 3.89 3 5 3zM3 15H5V17H3V15zM15 3H17V5H15V3zM19 21H9C7.89 21 7 20.1 7 19V9C7 7.9 7.89 7 9 7H19C20.1 7 21 7.9 21 9V19C21 20.1 20.1 21 19 21zM19 9H9V19H19V9zM11 3H13V5H11V3zM7 3H9V5H7V3z" />
    <glyph glyph-name="ic_get_app"
      unicode="&#xF13E;"
      horiz-adv-x="24" d=" M19 15H15V21H9V15H5L12 8L19 15zM5 6V4H19V6H5z" />
    <glyph glyph-name="ic_gif"
      unicode="&#xF13F;"
      horiz-adv-x="24" d=" M24 0H0V24H24V0z M11.5 15H13V9H11.5zM9 15H6C5.4 15 5 14.5 5 14V10C5 9.5 5.4 9 6 9H9C9.6 9 10 9.5 10 10V12H8.5V10.5H6.5V13.5H10V14C10 14.5 9.6 15 9 15zM19 13.5V15H14.5V9H16V11H18V12.5H16V13.5z" />
    <glyph glyph-name="ic_grade"
      unicode="&#xF140;"
      horiz-adv-x="24" d=" M12 6.73L18.18 3L16.54 10.03L22 14.76L14.81 15.37L12 22L9.19 15.37L2 14.76L7.46 10.03L5.82 3z" />
    <glyph glyph-name="ic_group_work"
      unicode="&#xF141;"
      horiz-adv-x="24" d=" M12 22C6.48 22 2 17.52 2 12S6.48 2 12 2S22 6.48 22 12S17.52 22 12 22zM8 6.5C6.62 6.5 5.5 7.62 5.5 9S6.62 11.5 8 11.5S10.5 10.38 10.5 9S9.38 6.5 8 6.5zM9.5 16C9.5 17.38 10.62 18.5 12 18.5S14.5 17.38 14.5 16S13.38 13.5 12 13.5S9.5 14.62 9.5 16zM16 6.5C14.62 6.5 13.5 7.62 13.5 9S14.62 11.5 16 11.5S18.5 10.38 18.5 9S17.38 6.5 16 6.5z" />
    <glyph glyph-name="ic_help"
      unicode="&#xF142;"
      horiz-adv-x="24" d=" M12 22C6.48 22 2 17.52 2 12S6.48 2 12 2S22 6.48 22 12S17.52 22 12 22zM13 5H11V7H13V5zM15.07 12.75L14.17 11.83C13.45 11.1 13 10.5 13 9H11V9.5C11 10.6 11.45 11.6 12.17 12.33L13.41 13.59C13.78 13.95 14 14.45 14 15C14 16.1 13.1 17 12 17S10 16.1 10 15H8C8 17.21 9.79 19 12 19S16 17.21 16 15C16 14.12 15.64 13.32 15.07 12.75z" />
    <glyph glyph-name="ic_help_outline"
      unicode="&#xF143;"
      horiz-adv-x="24" d=" M11 6H13V8H11V6zM12 22C6.48 22 2 17.52 2 12S6.48 2 12 2S22 6.48 22 12S17.52 22 12 22zM12 4C7.59 4 4 7.59 4 12S7.59 20 12 20S20 16.41 20 12S16.41 4 12 4zM12 18C9.79 18 8 16.21 8 14H10C10 15.1 10.9 16 12 16S14 15.1 14 14C14 12 11 12.25 11 9H13C13 11.25 16 11.5 16 14C16 16.21 14.21 18 12 18z" />
    <glyph glyph-name="ic_highlight_off"
      unicode="&#xF144;"
      horiz-adv-x="24" d=" M14.59 16L12 13.41L9.41 16L8 14.59L10.59 12L8 9.41L9.41 8L12 10.59L14.59 8L16 9.41L13.41 12L16 14.59L14.59 16zM12 22C6.47 22 2 17.53 2 12S6.47 2 12 2S22 6.47 22 12S17.53 22 12 22zM12 4C7.59 4 4 7.59 4 12S7.59 20 12 20S20 16.41 20 12S16.41 4 12 4z" />
    <glyph glyph-name="ic_history"
      unicode="&#xF145;"
      horiz-adv-x="24" d=" M13 21C8.03 21 4 16.97 4 12H1L4.89 8.11L4.96 7.97L9 12H6C6 15.87 9.13 19 13 19S20 15.87 20 12S16.87 5 13 5C11.07 5 9.32 5.79 8.06 7.06L6.64 5.64C8.27 4.01 10.51 3 13 3C17.97 3 22 7.03 22 12S17.97 21 13 21zM12 16V11L16.28 8.46L17 9.67L13.5 11.75V16H12z" />
    <glyph glyph-name="ic_home"
      unicode="&#xF146;"
      horiz-adv-x="24" d=" M10 4V10H14V4H19V12H22L12 21L2 12H5V4z" />
    <glyph glyph-name="ic_hourglass_empty"
      unicode="&#xF147;"
      horiz-adv-x="24" d=" M6 22V16H6.01L6 15.99L10 12L6 8L6.01 7.99H6V2H18V7.99H17.99L18 8L14 12L18 15.99L17.99 16H18V22H6zM16 7.5V4H8V7.5L12 11.5L16 7.5zM12 12.5L8 16.5V20H16V16.5L12 12.5z" />
    <glyph glyph-name="ic_hourglass_full"
      unicode="&#xF148;"
      horiz-adv-x="24" d=" M6 22V16H6.01L6 15.99L10 12L6 8L6.01 7.99H6V2H18V7.99H17.99L18 8L14 12L18 15.99L17.99 16H18V22H6z" />
    <glyph glyph-name="ic_http"
      unicode="&#xF149;"
      horiz-adv-x="24" d=" M4.5 13H2.5V15H1V9H2.5V11.5H4.5V9H6V15H4.5V13zM7 13.5H8.5V9H10V13.5H11.5V15H7V13.5zM12.5 13.5H14V9H15.5V13.5H17V15H12.5V13.5zM21.5 15H18V9H19.5V11H21.5C22.3 11 23 11.7 23 12.5V13.5C23 14.3 22.3 15 21.5 15zM21.5 12.5H19.5V13.5H21.5V12.5z" />
    <glyph glyph-name="ic_https"
      unicode="&#xF14A;"
      horiz-adv-x="24" d=" M18 16H17V18C17 20.76 14.76 23 12 23S7 20.76 7 18V16H6C4.9 16 4 15.1 4 14V4C4 2.9 4.9 2 6 2H18C19.1 2 20 2.9 20 4V14C20 15.1 19.1 16 18 16zM12 7C10.9 7 10 7.9 10 9S10.9 11 12 11S14 10.1 14 9S13.1 7 12 7zM15.1 16H8.9V18C8.9 19.71 10.29 21.1 12 21.1C13.71 21.1 15.1 19.71 15.1 18V16z" />
    <glyph glyph-name="ic_info"
      unicode="&#xF14B;"
      horiz-adv-x="24" d=" M12 22C6.48 22 2 17.52 2 12S6.48 2 12 2S22 6.48 22 12S17.52 22 12 22zM13 7H11V13H13V7zM13 15H11V17H13V15z" />
    <glyph glyph-name="ic_info_outline"
      unicode="&#xF14C;"
      horiz-adv-x="24" d=" M11 7H13V13H11V7zM12 22C6.48 22 2 17.52 2 12S6.48 2 12 2S22 6.48 22 12S17.52 22 12 22zM12 4C7.59 4 4 7.59 4 12S7.59 20 12 20S20 16.41 20 12S16.41 4 12 4zM11 15H13V17H11V15z" />
    <glyph glyph-name="ic_input"
      unicode="&#xF14D;"
      horiz-adv-x="24" d=" M21 20.99H3C1.9 20.99 1 20.09 1 18.99V15H3V19.01H21V4.98H3V9H1V4.99C1 3.89 1.9 3.01 3 3.01H21C22.1 3.01 23 3.89 23 4.99V18.99C23 20.1 22.1 20.99 21 20.99zM11 8L15 12L11 16V13H1V11H11V8z" />
    <glyph glyph-name="ic_invert_colors"
      unicode="&#xF14E;"
      horiz-adv-x="24" d=" M17.66 16.07L12 21.73L6.34 16.07C3.22 12.95 3.22 7.88 6.34 4.76C7.9 3.2 9.95 2.42 12 2.42C14.05 2.42 16.1 3.2 17.66 4.76C20.78 7.88 20.78 12.95 17.66 16.07zM12 4.41C10.4 4.41 8.89 5.03 7.76 6.17C6.62 7.31 6 8.81 6 10.41S6.62 13.52 7.76 14.65L12 18.9V4.41z" />
    <glyph glyph-name="ic_label"
      unicode="&#xF14F;"
      horiz-adv-x="24" d=" M17.63 18.16C17.27 18.67 16.67 19 16 19L5 18.99C3.9 18.99 3 18.1 3 17V7C3 5.9 3.9 5.01 5 5.01L16 5C16.67 5 17.27 5.33 17.63 5.84L22 12L17.63 18.16z" />
    <glyph glyph-name="ic_label_outline"
      unicode="&#xF150;"
      horiz-adv-x="24" d=" M17.63 18.16C17.27 18.67 16.67 19 16 19L5 18.99C3.9 18.99 3 18.1 3 17V7C3 5.9 3.9 5.01 5 5.01L16 5C16.67 5 17.27 5.33 17.63 5.84L22 12L17.63 18.16zM16 7H5V17H16L19.55 12L16 7z" />
    <glyph glyph-name="ic_language"
      unicode="&#xF151;"
      horiz-adv-x="24" d=" M11.99 22C6.47 22 2 17.52 2 12S6.47 2 11.99 2C17.52 2 22 6.48 22 12S17.52 22 11.99 22zM18.92 16H15.97C15.65 17.25 15.19 18.45 14.59 19.56C16.43 18.93 17.96 17.65 18.92 16zM12 19.96C12.83 18.76 13.48 17.43 13.91 16H10.09C10.52 17.43 11.17 18.76 12 19.96zM4.26 10C4.1 10.64 4 11.31 4 12S4.1 13.36 4.26 14H7.64C7.56 13.34 7.5 12.68 7.5 12C7.5 11.32 7.56 10.66 7.64 10H4.26zM5.08 8H8.03C8.35 6.75 8.81 5.55 9.41 4.44C7.57 5.07 6.04 6.34 5.08 8zM8.03 16H5.08C6.04 17.66 7.57 18.93 9.41 19.56C8.81 18.45 8.35 17.25 8.03 16zM12 4.04C11.17 5.24 10.52 6.57 10.09 8H13.91C13.48 6.57 12.83 5.24 12 4.04zM14.34 10H9.66C9.57 10.66 9.5 11.32 9.5 12C9.5 12.68 9.57 13.35 9.66 14H14.34C14.43 13.35 14.5 12.68 14.5 12C14.5 11.32 14.43 10.66 14.34 10zM14.59 4.44C15.19 5.55 15.65 6.75 15.97 8H18.92C17.96 6.35 16.43 5.07 14.59 4.44zM16.36 10C16.44 10.66 16.5 11.32 16.5 12C16.5 12.68 16.44 13.34 16.36 14H19.74C19.9 13.36 20 12.69 20 12S19.9 10.64 19.74 10H16.36z" />
    <glyph glyph-name="ic_launch"
      unicode="&#xF152;"
      horiz-adv-x="24" d=" M19 5H5V19H12V21H5C3.89 21 3 20.1 3 19V5C3 3.9 3.89 3 5 3H19C20.1 3 21 3.9 21 5V12H19V5zM14 21V19H17.59L7.76 9.17L9.17 7.76L19 17.59V14H21V21H14z" />
    <glyph glyph-name="ic_list"
      unicode="&#xF153;"
      horiz-adv-x="24" d=" M3 11H5V13H3V11zM3 7H5V9H3V7zM3 15H5V17H3V15zM7 11H21V13H7V11zM7 7H21V9H7V7zM7 17V15H21V17H7z" />
    <glyph glyph-name="ic_lock"
      unicode="&#xF154;"
      horiz-adv-x="24" d=" M18 16H17V18C17 20.76 14.76 23 12 23S7 20.76 7 18V16H6C4.9 16 4 15.1 4 14V4C4 2.9 4.9 2 6 2H18C19.1 2 20 2.9 20 4V14C20 15.1 19.1 16 18 16zM12 7C10.9 7 10 7.9 10 9S10.9 11 12 11S14 10.1 14 9S13.1 7 12 7zM15.1 16H8.9V18C8.9 19.71 10.29 21.1 12 21.1C13.71 21.1 15.1 19.71 15.1 18V16z" />
    <glyph glyph-name="ic_lock_open"
      unicode="&#xF155;"
      horiz-adv-x="24" d=" M12 7C13.1 7 14 7.9 14 9S13.1 11 12 11S10 10.1 10 9S10.9 7 12 7zM18 16H17V18C17 20.76 14.76 23 12 23S7 20.76 7 18H8.9C8.9 19.71 10.29 21.1 12 21.1C13.71 21.1 15.1 19.71 15.1 18V16H6C4.9 16 4 15.1 4 14V4C4 2.9 4.9 2 6 2H18C19.1 2 20 2.9 20 4V14C20 15.1 19.1 16 18 16zM18 4H6V14H18V4z" />
    <glyph glyph-name="ic_lock_outline"
      unicode="&#xF156;"
      horiz-adv-x="24" d=" M18 16H17V18C17 20.76 14.76 23 12 23S7 20.76 7 18V16H6C4.9 16 4 15.1 4 14V4C4 2.9 4.9 2 6 2H18C19.1 2 20 2.9 20 4V14C20 15.1 19.1 16 18 16zM12 21.1C13.71 21.1 15.1 19.71 15.1 18V16H9V18H8.9C8.9 19.71 10.29 21.1 12 21.1zM18 4H6V14H18V4zM12 7C13.1 7 14 7.9 14 9S13.1 11 12 11S10 10.1 10 9S10.9 7 12 7z" />
    <glyph glyph-name="ic_loyalty"
      unicode="&#xF157;"
      horiz-adv-x="24" d=" M21.41 12.42L12.41 21.42C12.05 21.78 11.55 22 11 22H4C2.9 22 2 21.1 2 20V13C2 12.45 2.22 11.95 2.59 11.58L11.59 2.58C11.95 2.22 12.45 2 13 2C13.55 2 14.05 2.22 14.41 2.59L21.41 9.59C21.78 9.95 22 10.45 22 11C22 11.55 21.77 12.06 21.41 12.42zM5.5 17C4.67 17 4 17.67 4 18.5S4.67 20 5.5 20S7 19.33 7 18.5S6.33 17 5.5 17zM17.27 8.73L13 4.46L8.73 8.73C8.28 9.19 8 9.81 8 10.5C8 11.88 9.12 13 10.5 13C11.19 13 11.82 12.72 12.27 12.26L13 11.54L13.73 12.27C14.18 12.72 14.81 13 15.5 13C16.88 13 18 11.88 18 10.5C18 9.81 17.72 9.18 17.27 8.73z" />
    <glyph glyph-name="ic_markunread_mailbox"
      unicode="&#xF158;"
      horiz-adv-x="24" d=" M20 18H10V12H8V20H14V24H6V18H4C2.9 18 2 17.1 2 16V4C2 2.9 2.9 2 4 2H20C21.1 2 22 2.9 22 4V16C22 17.1 21.1 18 20 18z" />
    <glyph glyph-name="ic_note_add"
      unicode="&#xF159;"
      horiz-adv-x="24" d=" M14 22H6C4.9 22 4.01 21.1 4.01 20L4 4C4 2.9 4.89 2 5.99 2H18C19.1 2 20 2.9 20 4V16L14 22zM16 8H13V5H11V8H8V10H11V13H13V10H16V8zM13 15V20.5L18.5 15H13z" />
    <glyph glyph-name="ic_offline_pin"
      unicode="&#xF15A;"
      horiz-adv-x="24" d=" M0 24H24V0H0V24z M12 22C6.5 22 2 17.5 2 12S6.5 2 12 2S22 6.5 22 12S17.5 22 12 22zM17 6H7V8H17V6zM10.3 10L7 13.3L8.4 14.7L10.3 12.8L15.6 18.1L17 16.7L10.3 10z" />
    <glyph glyph-name="ic_open_in_browser"
      unicode="&#xF15B;"
      horiz-adv-x="24" d=" M19 20H5C3.89 20 3 19.1 3 18V6C3 4.9 3.89 4 5 4H9V6H5V16H19V6H15V4H19C20.1 4 21 4.9 21 6V18C21 19.1 20.11 20 19 20zM12 14L8 10H11V4H13V10H16L12 14z" />
    <glyph glyph-name="ic_open_in_new"
      unicode="&#xF15C;"
      horiz-adv-x="24" d=" M19 5H5V19H12V21H5C3.89 21 3 20.1 3 19V5C3 3.9 3.89 3 5 3H19C20.1 3 21 3.9 21 5V12H19V5zM14 21V19H17.59L7.76 9.17L9.17 7.76L19 17.59V14H21V21H14z" />
    <glyph glyph-name="ic_open_with"
      unicode="&#xF15D;"
      horiz-adv-x="24" d=" M10 15H14V18H17L12 23L7 18H10V15zM9 14H6V17L1 12L6 7V10H9V14zM23 12L18 17V14H15V10H18V7L23 12zM14 9H10V6H7L12 1L17 6H14V9z" />
    <glyph glyph-name="ic_pageview"
      unicode="&#xF15E;"
      horiz-adv-x="24" d=" M11.5 15C10.12 15 9 13.88 9 12.5S10.12 10 11.5 10S14 11.12 14 12.5S12.88 15 11.5 15zM20 20H4C2.9 20 2 19.1 2 18V6C2 4.9 2.9 4 4 4H20C21.1 4 22 4.9 22 6V18C22 19.1 21.1 20 20 20zM16.79 5.79L13.88 8.7C13.19 8.26 12.37 8 11.49 8C9.01 8 7 10.01 7 12.5S9.01 17 11.5 17S16 14.99 16 12.5C16 11.62 15.74 10.81 15.3 10.11L18.21 7.21L16.79 5.79z" />
    <glyph glyph-name="ic_payment"
      unicode="&#xF15F;"
      horiz-adv-x="24" d=" M20 20H4C2.89 20 2.01 19.11 2.01 18L2 6C2 4.89 2.89 4 4 4H20C21.11 4 22 4.89 22 6V18C22 19.11 21.11 20 20 20zM20 6H4V12H20V6zM20 16H4V18H20V16z" />
    <glyph glyph-name="ic_perm_camera_mic"
      unicode="&#xF160;"
      horiz-adv-x="24" d=" M20 19H16.83L15 21H9L7.17 19H4C2.9 19 2 18.1 2 17V5C2 3.9 2.9 3 4 3H11V5.09C8.17 5.57 6 8.03 6 11H8C8 8.79 9.79 7 12 7S16 8.79 16 11H18C18 8.03 15.83 5.57 13 5.09V3H20C21.1 3 22 3.9 22 5V17C22 18.1 21.1 19 20 19zM14 11C14 9.9 13.1 9 12 9S10 9.9 10 11V15C10 16.1 10.9 17 12 17S14 16.1 14 15V11z" />
    <glyph glyph-name="ic_perm_contact_calendar"
      unicode="&#xF161;"
      horiz-adv-x="24" d=" M19 21H18V23H16V21H8V23H6V21H5C3.89 21 3 20.1 3 19V5C3 3.9 3.89 3 5 3H19C20.1 3 21 3.9 21 5V19C21 20.1 20.1 21 19 21zM12 18C13.66 18 15 16.66 15 15S13.66 12 12 12S9 13.34 9 15S10.34 18 12 18zM18 6H6V7C6 9 10 10.1 12 10.1S18 9 18 7V6z" />
    <glyph glyph-name="ic_perm_data_setting"
      unicode="&#xF162;"
      horiz-adv-x="24" d=" M18.99 12.5C19.33 12.5 19.66 12.47 19.99 12.43L20 24L0 4H11.56C11.52 4.33 11.49 4.66 11.49 5C11.49 9.14 14.85 12.5 18.99 12.5zM22.7 4.51C22.72 4.67 22.74 4.83 22.74 5C22.74 5.17 22.73 5.33 22.7 5.49L23.76 6.32C23.85 6.4 23.88 6.53 23.82 6.64L22.82 8.37C22.76 8.48 22.63 8.52 22.51 8.48L21.27 7.98C21.01 8.18 20.73 8.35 20.42 8.47L20.23 9.79C20.22 9.91 20.11 10 19.99 10H17.99C17.87 10 17.76 9.91 17.74 9.79L17.55 8.47C17.25 8.34 16.96 8.18 16.7 7.98L15.46 8.48C15.35 8.52 15.22 8.48 15.15 8.37L14.15 6.64C14.09 6.53 14.11 6.4 14.21 6.32L15.27 5.49C15.25 5.33 15.24 5.17 15.24 5C15.24 4.83 15.25 4.67 15.27 4.51L14.21 3.68C14.12 3.6 14.09 3.47 14.15 3.36L15.15 1.63C15.21 1.52 15.34 1.48 15.46 1.52L16.7 2.02C16.96 1.82 17.24 1.65 17.55 1.53L17.74 0.21C17.76 0.09 17.86 0 17.99 0H19.99C20.11 0 20.22 0.09 20.24 0.21L20.43 1.53C20.73 1.66 21.02 1.82 21.27 2.02L22.52 1.52C22.63 1.48 22.76 1.52 22.83 1.63L23.83 3.36C23.89 3.47 23.86 3.6 23.77 3.68L22.7 4.51zM18.99 3.5C18.16 3.5 17.49 4.17 17.49 5S18.16 6.5 18.99 6.5S20.49 5.83 20.49 5S19.82 3.5 18.99 3.5z" />
    <glyph glyph-name="ic_perm_device_information"
      unicode="&#xF163;"
      horiz-adv-x="24" d=" M13 17H11V15H13V17zM13 13H11V7H13V13zM17 22.99L7 23C5.9 23 5 22.1 5 21V3C5 1.9 5.9 1 7 1H17C18.1 1 19 1.9 19 3V21C19 22.1 18.1 22.99 17 22.99zM17 5H7V19H17V5z" />
    <glyph glyph-name="ic_perm_identity"
      unicode="&#xF164;"
      horiz-adv-x="24" d=" M12 18.1C13.16 18.1 14.1 17.16 14.1 16S13.16 13.9 12 13.9S9.9 14.84 9.9 16S10.84 18.1 12 18.1M12 9.1C14.97 9.1 18.1 7.64 18.1 7V5.9H5.9V7C5.9 7.64 9.03 9.1 12 9.1M12 20C9.79 20 8 18.21 8 16S9.79 12 12 12S16 13.79 16 16S14.21 20 12 20zM12 9.1C9.33 9.1 4 7.76 4 5.1V2.1H20V5.1C20 7.76 14.67 9.1 12 9.1z" />
    <glyph glyph-name="ic_perm_media"
      unicode="&#xF165;"
      horiz-adv-x="24" d=" M2 18H0V13H0.01L0 4C0 2.9 0.9 2 2 2H20V4H2V18zM22 20H14L12 22H6C4.9 22 4.01 21.1 4.01 20L4 8C4 6.9 4.9 6 6 6H22C23.1 6 24 6.9 24 8V18C24 19.1 23.1 20 22 20zM7 9L11.5 15L15 10.49L17.5 13.5L21 9H7z" />
    <glyph glyph-name="ic_perm_phone_msg"
      unicode="&#xF166;"
      horiz-adv-x="24" d=" M20 8.5C18.75 8.5 17.55 8.7 16.43 9.07C16.08 9.18 15.69 9.1 15.41 8.83L13.21 6.63C10.38 8.07 8.06 10.38 6.62 13.21L8.82 15.42C9.1 15.69 9.18 16.08 9.07 16.43C8.7 17.55 8.5 18.75 8.5 20C8.5 20.55 8.05 21 7.5 21H4C3.45 21 3 20.55 3 20C3 10.61 10.61 3 20 3C20.55 3 21 3.45 21 4V7.5C21 8.05 20.55 8.5 20 8.5zM12 21V11L15 14H21V21H12z" />
    <glyph glyph-name="ic_perm_scan_wifi"
      unicode="&#xF167;"
      horiz-adv-x="24" d=" M12 21C6.95 21 3.15 19.15 0 16.77L12 2L24 16.75C20.85 19.13 17.05 21 12 21zM13 8H11V14H13V8zM11 16V18H13V16H11z" />
    <glyph glyph-name="ic_picture_in_picture"
      unicode="&#xF168;"
      horiz-adv-x="24" d=" M19 17H11V11H19V17zM21 21H3C1.9 21 1 20.1 1 19V5C1 3.9 1.9 3.02 3 3.02H21C22.1 3.02 23 3.9 23 5V19C23 20.1 22.1 21 21 21zM21 4.99H3V19.02H21V4.99z" />
    <glyph glyph-name="ic_play_for_work"
      unicode="&#xF169;"
      horiz-adv-x="24" d=" M11 19V13.41H7.5L12 8.91L16.5 13.41H13V19H11zM6 10C6 6.69 8.69 4 12 4S18 6.69 18 10H16C16 7.79 14.21 6 12 6S8 7.79 8 10H6z" />
    <glyph glyph-name="ic_polymer"
      unicode="&#xF16A;"
      horiz-adv-x="24" d=" M19 20H15L7.11 7.37L4.5 12L9 20H5L0.5 12L5 4H9L16.89 16.63L19.5 12L15 4H19L23.5 12z" />
    <glyph glyph-name="ic_power_settings_new"
      unicode="&#xF16B;"
      horiz-adv-x="24" d=" M13 21H11V11H13V21zM17.83 18.83L16.41 17.41C17.99 16.14 19 14.19 19 12C19 8.13 15.87 5 12 5S5 8.13 5 12C5 14.19 6.01 16.14 7.58 17.42L6.17 18.83C4.23 17.18 3 14.74 3 12C3 7.03 7.03 3 12 3S21 7.03 21 12C21 14.74 19.77 17.18 17.83 18.83z" />
    <glyph glyph-name="ic_print"
      unicode="&#xF16C;"
      horiz-adv-x="24" d=" M19 16H5C3.34 16 2 14.66 2 13V7H6V3H18V7H22V13C22 14.66 20.66 16 19 16zM16 5H8V10H16V5zM19 12C18.45 12 18 12.45 18 13S18.45 14 19 14S20 13.55 20 13S19.55 12 19 12zM18 21H6V17H18V21z" />
    <glyph glyph-name="ic_query_builder"
      unicode="&#xF16D;"
      horiz-adv-x="24" d=" M11.99 22C6.47 22 2 17.52 2 12S6.47 2 11.99 2C17.52 2 22 6.48 22 12S17.52 22 11.99 22zM12 4C7.58 4 4 7.58 4 12S7.58 20 12 20S20 16.42 20 12S16.42 4 12 4z M12.5 17H11V11L16.25 7.85L17 9.08L12.5 11.75z" />
    <glyph glyph-name="ic_question_answer"
      unicode="&#xF16E;"
      horiz-adv-x="24" d=" M21 18H19V9H6V7C6 6.45 6.45 6 7 6H18L22 2V17C22 17.55 21.55 18 21 18zM17 12V21C17 21.55 16.55 22 16 22H3C2.45 22 2 21.55 2 21V7L6 11H16C16.55 11 17 11.45 17 12z" />
    <glyph glyph-name="ic_receipt"
      unicode="&#xF16F;"
      horiz-adv-x="24" d=" M18 7H6V9H18V7zM18 11H6V13H18V11zM18 15H6V17H18V15zM3 2L4.5 3.5L6 2L7.5 3.5L9 2L10.5 3.5L12 2L13.5 3.5L15 2L16.5 3.5L18 2L19.5 3.5L21 2V22L19.5 20.5L18 22L16.5 20.5L15 22L13.5 20.5L12 22L10.5 20.5L9 22L7.5 20.5L6 22L4.5 20.5L3 22V2z" />
    <glyph glyph-name="ic_redeem"
      unicode="&#xF170;"
      horiz-adv-x="24" d=" M20 18H17.82C17.93 18.31 18 18.65 18 19C18 20.66 16.66 22 15 22C13.95 22 13.04 21.46 12.5 20.65L12 19.98L11.5 20.66C10.96 21.46 10.05 22 9 22C7.34 22 6 20.66 6 19C6 18.65 6.07 18.31 6.18 18H4C2.89 18 2.01 17.11 2.01 16L2 5C2 3.89 2.89 3 4 3H20C21.11 3 22 3.89 22 5V16C22 17.11 21.11 18 20 18zM15 20C15.55 20 16 19.55 16 19S15.55 18 15 18S14 18.45 14 19S14.45 20 15 20zM9 20C9.55 20 10 19.55 10 19S9.55 18 9 18S8 18.45 8 19S8.45 20 9 20zM20 5H4V7H20V5zM20 10H4V16H9.08L7 13.17L8.62 12L11 15.24L12 16.6L13 15.24L15.38 12L17 13.17L14.92 16H20V10z" />
    <glyph glyph-name="ic_reorder"
      unicode="&#xF171;"
      horiz-adv-x="24" d=" M3 9H21V11H3V9zM3 5H21V7H3V5zM3 13H21V15H3V13zM3 19V17H21V19H3z" />
    <glyph glyph-name="ic_report_problem"
      unicode="&#xF172;"
      horiz-adv-x="24" d=" M1 3H23L12 22L1 3zM13 6H11V8H13V6zM13 10H11V14H13V10z" />
    <glyph glyph-name="ic_restore"
      unicode="&#xF173;"
      horiz-adv-x="24" d=" M13 21C8.03 21 4 16.97 4 12H1L4.89 8.11L4.96 7.97L9 12H6C6 15.87 9.13 19 13 19S20 15.87 20 12S16.87 5 13 5C11.07 5 9.32 5.79 8.06 7.06L6.64 5.64C8.27 4.01 10.51 3 13 3C17.97 3 22 7.03 22 12S17.97 21 13 21zM12 16V11L16.28 8.46L17 9.67L13.5 11.75V16H12z" />
    <glyph glyph-name="ic_room"
      unicode="&#xF174;"
      horiz-adv-x="24" d=" M12 22C8.13 22 5 18.87 5 15C5 9.75 12 2 12 2S19 9.75 19 15C19 18.87 15.87 22 12 22zM12 12.5C10.62 12.5 9.5 13.62 9.5 15S10.62 17.5 12 17.5S14.5 16.38 14.5 15S13.38 12.5 12 12.5z" />
    <glyph glyph-name="ic_schedule"
      unicode="&#xF175;"
      horiz-adv-x="24" d=" M11.99 22C6.47 22 2 17.52 2 12S6.47 2 11.99 2C17.52 2 22 6.48 22 12S17.52 22 11.99 22zM12 4C7.58 4 4 7.58 4 12S7.58 20 12 20S20 16.42 20 12S16.42 4 12 4z M12.5 17H11V11L16.25 7.85L17 9.08L12.5 11.75z" />
    <glyph glyph-name="ic_search"
      unicode="&#xF176;"
      horiz-adv-x="24" d=" M15.5 10H14.71L14.43 10.27C15.41 11.41 16 12.89 16 14.5C16 18.09 13.09 21 9.5 21S3 18.09 3 14.5S5.91 8 9.5 8C11.11 8 12.59 8.59 13.73 9.57L14 9.29V8.5L19 3.51L20.49 5L15.5 10zM9.5 10C7.01 10 5 12.01 5 14.5S7.01 19 9.5 19S14 16.99 14 14.5S11.99 10 9.5 10z" />
    <glyph glyph-name="ic_settings"
      unicode="&#xF177;"
      horiz-adv-x="24" d=" M19.43 11.02C19.47 11.34 19.5 11.66 19.5 12S19.47 12.66 19.43 12.98L21.54 14.63C21.73 14.78 21.78 15.05 21.66 15.27L19.66 18.73C19.54 18.95 19.27 19.03 19.05 18.95L16.56 17.95C16.04 18.35 15.48 18.68 14.87 18.93L14.49 21.58C14.46 21.82 14.25 22 14 22H10C9.75 22 9.54 21.82 9.51 21.58L9.13 18.93C8.52 18.68 7.96 18.34 7.44 17.95L4.95 18.95C4.72 19.04 4.46 18.95 4.34 18.73L2.34 15.27C2.21 15.05 2.27 14.78 2.46 14.63L4.57 12.98C4.53 12.66 4.5 12.33 4.5 12S4.53 11.34 4.57 11.02L2.46 9.37C2.27 9.22 2.22 8.95 2.34 8.73L4.34 5.27C4.46 5.05 4.73 4.97 4.95 5.05L7.44 6.05C7.96 5.65 8.52 5.32 9.13 5.07L9.51 2.42C9.54 2.18 9.75 2 10 2H14C14.25 2 14.46 2.18 14.49 2.42L14.87 5.07C15.48 5.32 16.04 5.66 16.56 6.05L19.05 5.05C19.28 4.96 19.54 5.05 19.66 5.27L21.66 8.73C21.78 8.95 21.73 9.22 21.54 9.37L19.43 11.02zM12 8.5C10.07 8.5 8.5 10.07 8.5 12S10.07 15.5 12 15.5S15.5 13.93 15.5 12S13.93 8.5 12 8.5z" />
    <glyph glyph-name="ic_settings_applications"
      unicode="&#xF178;"
      horiz-adv-x="24" d=" M12 14C10.9 14 10 13.1 10 12S10.9 10 12 10S14 10.9 14 12S13.1 14 12 14zM19 21H5C3.89 21 3 20.1 3 19V5C3 3.9 3.89 3 5 3H19C20.11 3 21 3.9 21 5V19C21 20.1 20.11 21 19 21zM17.25 12C17.25 11.77 17.23 11.54 17.2 11.32L18.68 10.16C18.81 10.05 18.85 9.86 18.76 9.71L17.36 7.29C17.27 7.14 17.09 7.08 16.93 7.14L15.19 7.84C14.83 7.56 14.43 7.33 14.01 7.15L13.75 5.3C13.72 5.13 13.57 5 13.4 5H10.6C10.43 5 10.28 5.13 10.25 5.29L9.99 7.14C9.56 7.32 9.17 7.55 8.81 7.83L7.07 7.13C6.91 7.07 6.73 7.13 6.64 7.28L5.24 9.7C5.15 9.85 5.19 10.04 5.32 10.15L6.8 11.31C6.77 11.54 6.75 11.77 6.75 12C6.75 12.23 6.77 12.46 6.8 12.68L5.32 13.84C5.19 13.95 5.15 14.14 5.24 14.29L6.64 16.71C6.73 16.86 6.91 16.92 7.07 16.86L8.81 16.16C9.17 16.44 9.57 16.67 9.99 16.85L10.25 18.7C10.28 18.87 10.43 19 10.6 19H13.4C13.57 19 13.72 18.87 13.75 18.71L14.01 16.86C14.44 16.68 14.83 16.45 15.19 16.17L16.93 16.87C17.09 16.93 17.27 16.87 17.36 16.72L18.76 14.3C18.85 14.15 18.81 13.96 18.68 13.85L17.2 12.69C17.23 12.46 17.25 12.23 17.25 12z" />
    <glyph glyph-name="ic_settings_backup_restore"
      unicode="&#xF179;"
      horiz-adv-x="24" d=" M14 12C14 13.1 13.1 14 12 14S10 13.1 10 12S10.9 10 12 10S14 10.9 14 12zM12 21C7.03 21 3 16.97 3 12H0L4 8L8 12H5C5 15.87 8.13 19 12 19S19 15.87 19 12S15.87 5 12 5C10.49 5 9.09 5.49 7.94 6.3L6.52 4.86C8.04 3.7 9.94 3 12 3C16.97 3 21 7.03 21 12S16.97 21 12 21z" />
    <glyph glyph-name="ic_settings_bluetooth"
      unicode="&#xF17A;"
      horiz-adv-x="24" d=" M11 0H13V2H11V0zM7 0H9V2H7V0zM15 0H17V2H15V0zM17.71 18.29L12 24H11V16.41L6.41 21L5 19.59L10.59 14L5 8.41L6.41 7L11 11.59V4H12L17.71 9.71L13.41 14L17.71 18.29zM13 20.17L14.88 18.29L13 16.41V20.17zM14.88 9.71L13 7.83V11.59L14.88 9.71z" />
    <glyph glyph-name="ic_settings_brightness"
      unicode="&#xF17B;"
      horiz-adv-x="24" d=" M21 21H3C1.9 21 1 20.1 1 19V5C1 3.9 1.9 3 3 3H21C22.1 3 23 3.9 23 5V19C23 20.1 22.1 21 21 21zM21 4.99H3V19.01H21V4.99zM8 8H10.5L12 6.5L13.5 8H16V10.5L17.5 12L16 13.5V16H13.5L12 17.5L10.5 16H8V13.5L6.5 12L8 10.5V8zM12 15C13.66 15 15 13.66 15 12S13.66 9 12 9V15z" />
    <glyph glyph-name="ic_settings_cell"
      unicode="&#xF17C;"
      horiz-adv-x="24" d=" M7 0H9V2H7V0zM11 0H13V2H11V0zM15 0H17V2H15V0zM16 23.99L8 24C6.9 24 6 23.1 6 22V6C6 4.9 6.9 4 8 4H16C17.1 4 18 4.9 18 6V22C18 23.1 17.1 23.99 16 23.99zM16 8H8V20H16V8z" />
    <glyph glyph-name="ic_settings_ethernet"
      unicode="&#xF17D;"
      horiz-adv-x="24" d=" M7.77 17.24L6.23 18.52L0.82 12L6.23 5.48L7.77 6.76L3.42 12L7.77 17.24zM7 11H9V13H7V11zM17 13H15V11H17V13zM11 11H13V13H11V11zM17.77 18.52L16.23 17.24L20.58 12L16.23 6.76L17.77 5.48L23.18 12L17.77 18.52z" />
    <glyph glyph-name="ic_settings_input_antenna"
      unicode="&#xF17E;"
      horiz-adv-x="24" d=" M12 19C8.13 19 5 15.87 5 12H7C7 14.76 9.24 17 12 17S17 14.76 17 12H19C19 15.87 15.87 19 12 19zM13 9.71C13.88 10.1 14.5 10.97 14.5 12C14.5 13.38 13.38 14.5 12 14.5S9.5 13.38 9.5 12C9.5 10.98 10.12 10.1 11 9.71V6.41L7.59 3L9 1.59L12 4.59L15 1.59L16.41 3L13 6.41V9.71zM12 23C5.93 23 1 18.07 1 12H3C3 16.97 7.03 21 12 21S21 16.97 21 12H23C23 18.07 18.07 23 12 23z" />
    <glyph glyph-name="ic_settings_input_component"
      unicode="&#xF17F;"
      horiz-adv-x="24" d=" M5 22C5 22.55 4.55 23 4 23S3 22.55 3 22V18H1V12H7V18H5V22zM9 8C9 6.7 9.84 5.6 11 5.18V1H13V5.18C14.16 5.59 15 6.69 15 8V10H9V8zM1 8C1 6.7 1.84 5.6 3 5.18V1H5V5.18C6.16 5.6 7 6.7 7 8V10H1V8zM21 18V22C21 22.55 20.55 23 20 23S19 22.55 19 22V18H17V12H23V18H21zM13 22C13 22.55 12.55 23 12 23S11 22.55 11 22V18H9V12H15V18H13V22zM17 8C17 6.7 17.84 5.6 19 5.18V1H21V5.18C22.16 5.59 23 6.69 23 8V10H17V8z" />
    <glyph glyph-name="ic_settings_input_composite"
      unicode="&#xF180;"
      horiz-adv-x="24" d=" M5 22C5 22.55 4.55 23 4 23S3 22.55 3 22V18H1V12H7V18H5V22zM9 8C9 6.7 9.84 5.6 11 5.18V1H13V5.18C14.16 5.59 15 6.69 15 8V10H9V8zM1 8C1 6.7 1.84 5.6 3 5.18V1H5V5.18C6.16 5.6 7 6.7 7 8V10H1V8zM21 18V22C21 22.55 20.55 23 20 23S19 22.55 19 22V18H17V12H23V18H21zM13 22C13 22.55 12.55 23 12 23S11 22.55 11 22V18H9V12H15V18H13V22zM17 8C17 6.7 17.84 5.6 19 5.18V1H21V5.18C22.16 5.59 23 6.69 23 8V10H17V8z" />
    <glyph glyph-name="ic_settings_input_hdmi"
      unicode="&#xF181;"
      horiz-adv-x="24" d=" M18 17V20C18 21.1 17.1 22 16 22H8C6.9 22 6 21.1 6 20V17H5V11L8 5V2H16V5L19 11V17H18zM8 20H16V17H14V19H13V17H11V19H10V17H8V20z" />
    <glyph glyph-name="ic_settings_input_svideo"
      unicode="&#xF182;"
      horiz-adv-x="24" d=" M8 12.5C8 13.33 7.33 14 6.5 14S5 13.33 5 12.5S5.67 11 6.5 11S8 11.67 8 12.5zM15 17.5C15 18.33 14.33 19 13.5 19H10.5C9.67 19 9 18.33 9 17.5S9.67 16 10.5 16H13.5C14.33 16 15 16.67 15 17.5zM8.5 9C7.67 9 7 8.33 7 7.5S7.67 6 8.5 6S10 6.67 10 7.5S9.33 9 8.5 9zM12 23C5.93 23 1 18.07 1 12S5.93 1 12 1S23 5.93 23 12S18.07 23 12 23zM12 3C7.04 3 3 7.04 3 12S7.04 21 12 21S21 16.96 21 12S16.96 3 12 3zM17.5 14C16.67 14 16 13.33 16 12.5S16.67 11 17.5 11S19 11.67 19 12.5S18.33 14 17.5 14zM15.5 9C14.67 9 14 8.33 14 7.5S14.67 6 15.5 6S17 6.67 17 7.5S16.33 9 15.5 9z" />
    <glyph glyph-name="ic_settings_overscan"
      unicode="&#xF183;"
      horiz-adv-x="24" d=" M12.01 18.5L10 16H14L12.01 18.5zM18 14V10L20.5 11.99L18 14zM6 14L3.5 11.99L6 10V14zM14 8H10L12.01 5.5L14 8zM21 21H3C1.9 21 1 20.1 1 19V5C1 3.9 1.9 3 3 3H21C22.1 3 23 3.9 23 5V19C23 20.1 22.1 21 21 21zM21 4.99H3V19.01H21V4.99z" />
    <glyph glyph-name="ic_settings_phone"
      unicode="&#xF184;"
      horiz-adv-x="24" d=" M13 15H11V13H13V15zM17 15H15V13H17V15zM20 8.5C18.75 8.5 17.55 8.7 16.43 9.07C16.08 9.18 15.69 9.1 15.41 8.83L13.21 6.63C10.38 8.07 8.06 10.38 6.62 13.21L8.82 15.42C9.1 15.69 9.18 16.08 9.07 16.43C8.7 17.55 8.5 18.75 8.5 20C8.5 20.55 8.05 21 7.5 21H4C3.45 21 3 20.55 3 20C3 10.61 10.61 3 20 3C20.55 3 21 3.45 21 4V7.5C21 8.05 20.55 8.5 20 8.5zM19 15V13H21V15H19z" />
    <glyph glyph-name="ic_settings_power"
      unicode="&#xF185;"
      horiz-adv-x="24" d=" M7 0H9V2H7V0zM11 0H13V2H11V0zM13 22H11V12H13V22zM16.56 19.56L15.11 18.11C16.84 17.06 18 15.17 18 13C18 9.69 15.31 7 12 7S6 9.69 6 13C6 15.17 7.16 17.06 8.88 18.12L7.44 19.56C5.36 18.12 4 15.72 4 13C4 8.58 7.58 5 12 5S20 8.58 20 13C20 15.72 18.64 18.12 16.56 19.56zM15 0H17V2H15V0z" />
    <glyph glyph-name="ic_settings_remote"
      unicode="&#xF186;"
      horiz-adv-x="24" d=" M15 15H9C8.45 15 8 14.55 8 14V2C8 1.45 8.45 1 9 1H15C15.55 1 16 1.45 16 2V14C16 14.55 15.55 15 15 15zM12 9C10.9 9 10 9.9 10 11S10.9 13 12 13S14 12.1 14 11S13.1 9 12 9zM7.05 17.95L8.46 16.54C9.37 17.44 10.62 18 12 18S14.63 17.44 15.54 16.54L16.95 17.95C15.68 19.22 13.93 20 12 20S8.32 19.22 7.05 17.95zM12 24C8.96 24 6.21 22.77 4.22 20.78L5.63 19.37C7.26 20.99 9.51 22 12 22S16.74 20.99 18.36 19.36L19.77 20.77C17.79 22.77 15.04 24 12 24z" />
    <glyph glyph-name="ic_settings_voice"
      unicode="&#xF187;"
      horiz-adv-x="24" d=" M7 0H9V2H7V0zM12 11C13.66 11 14.99 12.34 14.99 14L15 20C15 21.66 13.66 23 12 23S9 21.66 9 20V14C9 12.34 10.34 11 12 11zM11 0H13V2H11V0zM15 0H17V2H15V0zM19 14H17.3C17.3 11 14.76 8.9 12 8.9S6.7 11 6.7 14H5C5 10.59 7.72 7.77 11 7.28V4H13V7.28C16.28 7.77 19 10.59 19 14z" />
    <glyph glyph-name="ic_shop"
      unicode="&#xF188;"
      horiz-adv-x="24" d=" M16 18V20C16 21.11 15.11 22 14 22H10C8.89 22 8 21.11 8 20V18H2V5C2 3.89 2.89 3 4 3H20C21.11 3 22 3.89 22 5V18H16zM10 20H14V18H10V20zM9 6V15L16.5 11L9 6z" />
    <glyph glyph-name="ic_shop_two"
      unicode="&#xF189;"
      horiz-adv-x="24" d=" M3 15H1V4C1 2.89 1.89 2 3 2H17C18.11 2 19 2.89 19 4H3V15zM18 19V21C18 22.11 17.11 23 16 23H12C10.89 23 10 22.11 10 21V19H5V8C5 6.89 5.89 6 7 6H21C22.11 6 23 6.89 23 8V19H18zM12 21H16V19H12V21zM12 9V16L17.5 13L12 9z" />
    <glyph glyph-name="ic_shopping_basket"
      unicode="&#xF18A;"
      horiz-adv-x="24" d=" M17.21 15L12.83 21.56C12.64 21.84 12.32 21.98 12 21.98C11.68 21.98 11.36 21.84 11.17 21.55L6.79 15H2C1.45 15 1 14.55 1 14C1 13.91 1.01 13.82 1.04 13.73L3.58 4.46C3.81 3.62 4.58 3 5.5 3H18.5C19.42 3 20.19 3.62 20.43 4.46L22.97 13.73L23 14C23 14.55 22.55 15 22 15H17.21zM9 15L12 19.4L15 15H9zM12 7C10.9 7 10 7.9 10 9S10.9 11 12 11S14 10.1 14 9S13.1 7 12 7z" />
    <glyph glyph-name="ic_shopping_cart"
      unicode="&#xF18B;"
      horiz-adv-x="24" d=" M7 6C5.9 6 5.01 5.1 5.01 4S5.9 2 7 2S9 2.9 9 4S8.1 6 7 6zM1 22V20H3L6.6 12.41L5.25 9.96C5.09 9.68 5 9.35 5 9C5 7.9 5.9 7 7 7H19V9H7.42C7.28 9 7.17 9.11 7.17 9.25L7.2 9.37L8.1 11H15.55C16.3 11 16.96 11.41 17.3 12.03L20.88 18.52C20.96 18.66 21 18.83 21 19C21 19.55 20.55 20 20 20H5.21L4.27 22H1zM17 6C15.9 6 15.01 5.1 15.01 4S15.9 2 17 2S19 2.9 19 4S18.1 6 17 6z" />
    <glyph glyph-name="ic_speaker_notes"
      unicode="&#xF18C;"
      horiz-adv-x="24" d=" M20 22H4C2.9 22 2.01 21.1 2.01 20L2 2L6 6H20C21.1 6 22 6.9 22 8V20C22 21.1 21.1 22 20 22zM8 10H6V12H8V10zM8 13H6V15H8V13zM8 16H6V18H8V16zM15 10H10V12H15V10zM18 13H10V15H18V13zM18 16H10V18H18V16z" />
    <glyph glyph-name="ic_spellcheck"
      unicode="&#xF18D;"
      horiz-adv-x="24" d=" M12.45 8H14.54L9.43 21H7.57L2.46 8H4.55L5.67 11H11.31L12.45 8zM6.43 13L8.5 18.52L10.57 13H6.43zM21.59 12.41L13.5 4.32L9.83 8L8.42 6.59L13.51 1.5L23 11L21.59 12.41z" />
    <glyph glyph-name="ic_stars"
      unicode="&#xF18E;"
      horiz-adv-x="24" d=" M11.99 22C6.47 22 2 17.52 2 12S6.47 2 11.99 2C17.52 2 22 6.48 22 12S17.52 22 11.99 22zM16.23 6L12 8.55L7.77 6L8.89 10.81L5.16 14.04L10.08 14.46L12 19L13.92 14.47L18.84 14.05L15.11 10.82L16.23 6z" />
    <glyph glyph-name="ic_store"
      unicode="&#xF18F;"
      horiz-adv-x="24" d=" M20 20H4V18H20V20zM21 10V12L20 17H4L3 12V10H4V4H14V10H18V4H20V10H21zM12 6H6V10H12V6z" />
    <glyph glyph-name="ic_subject"
      unicode="&#xF190;"
      horiz-adv-x="24" d=" M14 7H4V5H14V7zM20 15H4V13H20V15zM4 9H20V11H4V9zM4 19V17H20V19H4z" />
    <glyph glyph-name="ic_supervisor_account"
      unicode="&#xF191;"
      horiz-adv-x="24" d=" M16.5 12C17.88 12 18.99 13.12 18.99 14.5S17.88 17 16.5 17C15.12 17 14 15.88 14 14.5S15.12 12 16.5 12zM9 13C10.66 13 11.99 14.34 11.99 16S10.66 19 9 19C7.34 19 6 17.66 6 16S7.34 13 9 13zM16.5 10C14.67 10 11 9.08 11 7.25V5H22V7.25C22 9.08 18.33 10 16.5 10zM9 11C6.67 11 2 9.83 2 7.5V5H9V7.25C9 8.1 9.33 9.59 11.37 10.72C10.5 10.9 9.66 11 9 11z" />
    <glyph glyph-name="ic_swap_horiz"
      unicode="&#xF192;"
      horiz-adv-x="24" d=" M6.99 13L3 9L6.99 5V8H14V10H6.99V13zM21 15L17.01 19V16H10V14H17.01V11L21 15z" />
    <glyph glyph-name="ic_swap_vert"
      unicode="&#xF193;"
      horiz-adv-x="24" d=" M16 6.99V14H14V6.99H11L15 3L19 6.99H16zM9 21L5 17.01H8V10H10V17.01H13L9 21z" />
    <glyph glyph-name="ic_swap_vertical_circle"
      unicode="&#xF194;"
      horiz-adv-x="24" d=" M12 22C6.48 22 2 17.52 2 12S6.48 2 12 2S22 6.48 22 12S17.52 22 12 22zM6.5 15L10 18.5L13.5 15H11V11H9V15H6.5zM17.5 9L14 5.5L10.5 9H13V13H15V9H17.5z" />
    <glyph glyph-name="ic_system_update_alt"
      unicode="&#xF195;"
      horiz-adv-x="24" d=" M12 7.5L16 11.5H13V20.5H11V11.5H8L12 7.5zM21 20.5H15V18.51H21V4.48H3V18.51H9V20.5H3C1.9 20.5 1 19.6 1 18.5V4.5C1 3.4 1.9 2.5 3 2.5H21C22.1 2.5 23 3.4 23 4.5V18.5C23 19.6 22.1 20.5 21 20.5z" />
    <glyph glyph-name="ic_tab"
      unicode="&#xF196;"
      horiz-adv-x="24" d=" M21 21H3C1.9 21 1 20.1 1 19V5C1 3.9 1.9 3 3 3H21C22.1 3 23 3.9 23 5V19C23 20.1 22.1 21 21 21zM21 5H3V19H13V15H21V5z" />
    <glyph glyph-name="ic_tab_unselected"
      unicode="&#xF197;"
      horiz-adv-x="24" d=" M1 15H3V17H1V15zM1 11H3V13H1V11zM1 19H3V21C1.9 21 1 20.1 1 19zM9 3H11V5H9V3zM1 7H3V9H1V7zM3 3V5H1C1 3.9 1.9 3 3 3zM21 21H13V15H23V19C23 20.1 22.1 21 21 21zM21 7H23V9H21V7zM9 19H11V21H9V19zM5 3H7V5H5V3zM5 19H7V21H5V19zM21 3C22.1 3 23 3.9 23 5H21V3zM21 11H23V13H21V11zM13 3H15V5H13V3zM17 3H19V5H17V3z" />
    <glyph glyph-name="ic_theaters"
      unicode="&#xF198;"
      horiz-adv-x="24" d=" M18 21V19H16V21H8V19H6V21H4V3H6V5H8V3H16V5H18V3H20V21H18zM8 7H6V9H8V7zM8 11H6V13H8V11zM8 15H6V17H8V15zM18 7H16V9H18V7zM18 11H16V13H18V11zM18 15H16V17H18V15z" />
    <glyph glyph-name="ic_thumb_down"
      unicode="&#xF199;"
      horiz-adv-x="24" d=" M15 21H6C5.17 21 4.46 20.5 4.16 19.78L1.14 12.73C1.05 12.5 1 12.26 1 12V10.09L1.01 10.08L1 10C1 8.9 1.9 8 3 8H9.31L8.36 3.43L8.33 3.11C8.33 2.7 8.5 2.32 8.77 2.05L9.83 1L16.42 7.59C16.78 7.95 17 8.45 17 9V19C17 20.1 16.1 21 15 21zM19 21V9H23V21H19z" />
    <glyph glyph-name="ic_thumb_up"
      unicode="&#xF19A;"
      horiz-adv-x="24" d=" M1 3H5V15H1V3zM23 14C23 15.1 22.1 16 21 16H14.69L15.64 20.57L15.67 20.89C15.67 21.3 15.5 21.68 15.23 21.95L14.17 23L7.59 16.41C7.22 16.05 7 15.55 7 15V5C7 3.9 7.9 3 9 3H18C18.83 3 19.54 3.5 19.84 4.22L22.86 11.27C22.95 11.5 23 11.74 23 12V13.91L22.99 13.92L23 14z" />
    <glyph glyph-name="ic_thumbs_up_down"
      unicode="&#xF19B;"
      horiz-adv-x="24" d=" M12 18C12 18.55 11.55 19 11 19H5.82L6.48 22.18L6.5 22.41C6.5 22.72 6.37 23 6.17 23.21L5.38 24L0.44 19.06C0.17 18.79 0 18.41 0 18V11.5C0 10.67 0.67 10 1.5 10H8.25C8.87 10 9.4 10.38 9.63 10.91L11.89 16.2C11.96 16.37 12 16.56 12 16.75V18zM22.5 14H15.75C15.13 14 14.6 13.62 14.37 13.09L12.11 7.8C12.04 7.63 12 7.44 12 7.25V6C12 5.45 12.45 5 13 5H18.18L17.52 1.82L17.5 1.58C17.5 1.27 17.63 0.99 17.83 0.78L18.62 0L23.56 4.94C23.83 5.21 24 5.59 24 6V12.5C24 13.33 23.33 14 22.5 14z" />
    <glyph glyph-name="ic_toc"
      unicode="&#xF19C;"
      horiz-adv-x="24" d=" M3 15H17V17H3V15zM3 11H17V13H3V11zM3 7H17V9H3V7zM19 7H21V9H19V7zM19 17V15H21V17H19zM19 11H21V13H19V11z" />
    <glyph glyph-name="ic_today"
      unicode="&#xF19D;"
      horiz-adv-x="24" d=" M19 21H18V23H16V21H8V23H6V21H5C3.89 21 3.01 20.1 3.01 19L3 5C3 3.9 3.89 3 5 3H19C20.1 3 21 3.9 21 5V19C21 20.1 20.1 21 19 21zM19 5H5V16H19V5zM7 14H12V9H7z" />
    <glyph glyph-name="ic_toll"
      unicode="&#xF19E;"
      horiz-adv-x="24" d=" M15 20C10.58 20 7 16.42 7 12S10.58 4 15 4S23 7.58 23 12S19.42 20 15 20zM15 6C11.69 6 9 8.69 9 12S11.69 18 15 18S21 15.31 21 12S18.31 6 15 6z M3 12C3 14.61 4.67 16.83 7 17.65V19.74C3.55 18.85 1 15.73 1 12S3.55 5.15 7 4.26V6.35C4.67 7.17 3 9.39 3 12z" />
    <glyph glyph-name="ic_track_changes"
      unicode="&#xF19F;"
      horiz-adv-x="24" d=" M19.07 19.07L17.66 17.66C19.1 16.21 20 14.21 20 12C20 7.58 16.42 4 12 4S4 7.58 4 12C4 16.08 7.05 19.44 11 19.93V17.91C8.16 17.43 6 14.97 6 12C6 8.69 8.69 6 12 6S18 8.69 18 12C18 13.66 17.33 15.16 16.24 16.24L14.83 14.83C15.55 14.1 16 13.1 16 12C16 9.79 14.21 8 12 8S8 9.79 8 12C8 13.86 9.28 15.41 11 15.86V13.72C10.4 13.37 10 12.74 10 12C10 10.9 10.9 10 12 10S14 10.9 14 12C14 12.74 13.6 13.38 13 13.72V22H12C6.48 22 2 17.52 2 12S6.48 2 12 2S22 6.48 22 12C22 14.76 20.88 17.26 19.07 19.07z" />
    <glyph glyph-name="ic_translate"
      unicode="&#xF1A0;"
      horiz-adv-x="24" d=" M12.87 8.93L10.33 11.44L10.36 11.47C12.1 13.41 13.34 15.64 14.07 18H17V20H10V22H8V20H1V18.01H12.17C11.5 16.08 10.44 14.25 9 12.65C8.07 13.68 7.3 14.81 6.69 16H4.69C5.42 14.37 6.42 12.83 7.67 11.44L2.58 6.42L4 5L9 10L12.11 6.89L12.87 8.93zM18.5 14H16.5L12 2H14L15.12 5H19.87L21 2H23L18.5 14zM15.88 7L17.5 11.33L19.12 7H15.88z" />
    <glyph glyph-name="ic_trending_down"
      unicode="&#xF1A1;"
      horiz-adv-x="24" d=" M16 6L18.29 8.29L13.41 13.17L9.41 9.17L2 16.59L3.41 18L9.41 12L13.41 16L19.71 9.71L22 12V6z" />
    <glyph glyph-name="ic_trending_flat"
      unicode="&#xF1A2;"
      horiz-adv-x="24" d=" M22 12L18 16V13H3V11H18V8z" />
    <glyph glyph-name="ic_trending_up"
      unicode="&#xF1A3;"
      horiz-adv-x="24" d=" M16 18L18.29 15.71L13.41 10.83L9.41 14.83L2 7.41L3.41 6L9.41 12L13.41 8L19.71 14.29L22 12V18z" />
    <glyph glyph-name="ic_turned_in"
      unicode="&#xF1A4;"
      horiz-adv-x="24" d=" M17 21H7C5.9 21 5.01 20.1 5.01 19L5 3L12 6L19 3V19C19 20.1 18.1 21 17 21z" />
    <glyph glyph-name="ic_turned_in_not"
      unicode="&#xF1A5;"
      horiz-adv-x="24" d=" M17 21H7C5.9 21 5.01 20.1 5.01 19L5 3L12 6L19 3V19C19 20.1 18.1 21 17 21zM17 6L12 8.18L7 6V19H17V6z" />
    <glyph glyph-name="ic_verified_user"
      unicode="&#xF1A6;"
      horiz-adv-x="24" d=" M12 23L3 19V13C3 7.45 6.84 2.26 12 1C17.16 2.26 21 7.45 21 13V19L12 23zM10 7L6 11L7.41 12.41L10 9.83L16.59 16.42L18 15L10 7z" />
    <glyph glyph-name="ic_view_agenda"
      unicode="&#xF1A7;"
      horiz-adv-x="24" d=" M20 11H3C2.45 11 2 10.55 2 10V4C2 3.45 2.45 3 3 3H20C20.55 3 21 3.45 21 4V10C21 10.55 20.55 11 20 11zM20 21H3C2.45 21 2 20.55 2 20V14C2 13.45 2.45 13 3 13H20C20.55 13 21 13.45 21 14V20C21 20.55 20.55 21 20 21z" />
    <glyph glyph-name="ic_view_array"
      unicode="&#xF1A8;"
      horiz-adv-x="24" d=" M4 6H7V19H4V6zM18 19V6H21V19H18zM8 6H17V19H8V6z" />
    <glyph glyph-name="ic_view_carousel"
      unicode="&#xF1A9;"
      horiz-adv-x="24" d=" M7 5H17V20H7V5zM2 7H6V18H2V7zM18 18V7H22V18H18z" />
    <glyph glyph-name="ic_view_column"
      unicode="&#xF1AA;"
      horiz-adv-x="24" d=" M10 6H15V19H10V6zM4 6H9V19H4V6zM16 19V6H21V19H16z" />
    <glyph glyph-name="ic_view_day"
      unicode="&#xF1AB;"
      horiz-adv-x="24" d=" M2 3H21V6H2V3zM20 16H3C2.45 16 2 15.55 2 15V9C2 8.45 2.45 8 3 8H20C20.55 8 21 8.45 21 9V15C21 15.55 20.55 16 20 16zM2 21V18H21V21H2z" />
    <glyph glyph-name="ic_view_headline"
      unicode="&#xF1AC;"
      horiz-adv-x="24" d=" M4 9H20V11H4V9zM4 5H20V7H4V5zM4 13H20V15H4V13zM4 19V17H20V19H4z" />
    <glyph glyph-name="ic_view_list"
      unicode="&#xF1AD;"
      horiz-adv-x="24" d=" M4 10H8V14H4V10zM4 5H8V9H4V5zM4 15H8V19H4V15zM9 10H21V14H9V10zM9 5H21V9H9V5zM9 19V15H21V19H9z" />
    <glyph glyph-name="ic_view_module"
      unicode="&#xF1AE;"
      horiz-adv-x="24" d=" M4 13H9V19H4V13zM4 6H9V12H4V6zM10 6H15V12H10V6zM16 6H21V12H16V6zM10 13H15V19H10V13zM16 19V13H21V19H16z" />
    <glyph glyph-name="ic_view_quilt"
      unicode="&#xF1AF;"
      horiz-adv-x="24" d=" M10 6H15V12H10V6zM4 6H9V19H4V6zM16 6H21V12H16V6zM10 19V13H21V19H10z" />
    <glyph glyph-name="ic_view_stream"
      unicode="&#xF1B0;"
      horiz-adv-x="24" d=" M4 6H21V12H4V6zM4 19V13H21V19H4z" />
    <glyph glyph-name="ic_view_week"
      unicode="&#xF1B1;"
      horiz-adv-x="24" d=" M6 19H3C2.45 19 2 18.55 2 18V6C2 5.45 2.45 5 3 5H6C6.55 5 7 5.45 7 6V18C7 18.55 6.55 19 6 19zM20 19H17C16.45 19 16 18.55 16 18V6C16 5.45 16.45 5 17 5H20C20.55 5 21 5.45 21 6V18C21 18.55 20.55 19 20 19zM13 19H10C9.45 19 9 18.55 9 18V6C9 5.45 9.45 5 10 5H13C13.55 5 14 5.45 14 6V18C14 18.55 13.55 19 13 19z" />
    <glyph glyph-name="ic_visibility"
      unicode="&#xF1B2;"
      horiz-adv-x="24" d=" M12 19.5C7 19.5 2.73 16.39 1 12C2.73 7.61 7 4.5 12 4.5S21.27 7.61 23 12C21.27 16.39 17 19.5 12 19.5zM12 7C9.24 7 7 9.24 7 12S9.24 17 12 17S17 14.76 17 12S14.76 7 12 7zM12 15C10.34 15 9 13.66 9 12S10.34 9 12 9S15 10.34 15 12S13.66 15 12 15z" />
    <glyph glyph-name="ic_visibility_off"
      unicode="&#xF1B3;"
      horiz-adv-x="24" d=" M12 17C14.76 17 17 14.76 17 12C17 11.35 16.87 10.74 16.64 10.17L19.56 7.25C21.07 8.51 22.26 10.14 22.99 12C21.26 16.39 16.99 19.5 11.99 19.5C10.59 19.5 9.25 19.25 8.01 18.8L10.17 16.64C10.74 16.87 11.35 17 12 17zM2 19.73L4.28 17.45L4.74 16.99C3.08 15.7 1.78 13.98 1 12C2.73 7.61 7 4.5 12 4.5C13.55 4.5 15.03 4.8 16.38 5.34L16.8 4.92L19.73 2L21 3.27L3.27 21L2 19.73zM7.53 14.2L9.08 12.65C9.03 12.44 9 12.22 9 12C9 10.34 10.34 9 12 9C12.22 9 12.44 9.03 12.65 9.08L14.2 7.53C13.53 7.2 12.79 7 12 7C9.24 7 7 9.24 7 12C7 12.79 7.2 13.53 7.53 14.2zM11.84 14.98L14.99 11.83L15.01 11.99C15.01 13.65 13.67 14.99 12.01 14.99L11.84 14.98z" />
    <glyph glyph-name="ic_work"
      unicode="&#xF1B4;"
      horiz-adv-x="24" d=" M20 18H16V20C16 21.11 15.11 22 14 22H10C8.89 22 8 21.11 8 20V18H4C2.89 18 2.01 17.11 2.01 16L2 5C2 3.89 2.89 3 4 3H20C21.11 3 22 3.89 22 5V16C22 17.11 21.11 18 20 18zM14 18H10V20H14V18z" />
    <glyph glyph-name="ic_youtube_searched_for"
      unicode="&#xF1B5;"
      horiz-adv-x="24" d=" M17.01 10H16.21L15.94 10.27C16.92 11.41 17.51 12.88 17.51 14.5C17.51 18.09 14.6 21 11.01 21S4.51 18 4.51 14.5H2L5.84 10.5L10 14.5H6.51C6.51 17 8.53 19 11.01 19S15.51 16.99 15.51 14.5C15.51 12.02 13.49 10 11.01 10C10.36 10 9.75 10.14 9.19 10.38L7.71 8.9C8.68 8.33 9.8 8 11.01 8C12.62 8 14.09 8.59 15.23 9.57L15.5 9.3V8.51L20.51 3.52L22 5L17.01 10z" />
    <glyph glyph-name="ic_zoom_in"
      unicode="&#xF1B6;"
      horiz-adv-x="24" d=" M15.5 10H14.71L14.43 10.27C15.41 11.41 16 12.89 16 14.5C16 18.09 13.09 21 9.5 21S3 18.09 3 14.5S5.91 8 9.5 8C11.11 8 12.59 8.59 13.73 9.57L14 9.29V8.5L19 3.51L20.49 5L15.5 10zM9.5 10C7.01 10 5 12.01 5 14.5S7.01 19 9.5 19S14 16.99 14 14.5S11.99 10 9.5 10z M12 14H10V12H9V14H7V15H9V17H10V15H12V14z" />
    <glyph glyph-name="ic_zoom_out"
      unicode="&#xF1B7;"
      horiz-adv-x="24" d=" M15.5 10H14.71L14.43 10.27C15.41 11.41 16 12.89 16 14.5C16 18.09 13.09 21 9.5 21S3 18.09 3 14.5S5.91 8 9.5 8C11.11 8 12.59 8.59 13.73 9.57L14 9.29V8.5L19 3.51L20.49 5L15.5 10zM9.5 10C7.01 10 5 12.01 5 14.5S7.01 19 9.5 19S14 16.99 14 14.5S11.99 10 9.5 10zM7 15H12V14H7z" />
    <glyph glyph-name="ic_add_alert"
      unicode="&#xF1B8;"
      horiz-adv-x="24" d=" M10.01 2.99C10.01 1.89 10.9 1 12 1S13.99 1.89 13.99 2.99H10.01zM18.88 7.18V13C18.88 16.25 16.63 18.97 13.59 19.69V20.41C13.59 21.29 12.88 22 12 22S10.41 21.29 10.41 20.41V19.69C7.37 18.97 5.12 16.25 5.12 13V7.18L3 5.06V4H21V5.06L18.88 7.18zM16 10.99H13V7.99H11V10.99H8V13H11V16H13V13H16V10.99z" />
    <glyph glyph-name="ic_error"
      unicode="&#xF1B9;"
      horiz-adv-x="24" d=" M12 22C6.48 22 2 17.52 2 12S6.48 2 12 2S22 6.48 22 12S17.52 22 12 22zM13 7H11V9H13V7zM13 11H11V17H13V11z" />
    <glyph glyph-name="ic_error_outline"
      unicode="&#xF1BA;"
      horiz-adv-x="24" d=" M11 9H13V7H11zM11 17H13V11H11zM11.99 22C6.47 22 2 17.52 2 12S6.47 2 11.99 2C17.52 2 22 6.48 22 12S17.52 22 11.99 22zM12 4C7.58 4 4 7.58 4 12S7.58 20 12 20S20 16.42 20 12S16.42 4 12 4z" />
    <glyph glyph-name="ic_warning"
      unicode="&#xF1BB;"
      horiz-adv-x="24" d=" M1 3H23L12 22L1 3zM13 6H11V8H13V6zM13 10H11V14H13V10z" />
    <glyph glyph-name="ic_airplay"
      unicode="&#xF1BC;"
      horiz-adv-x="24" d=" M0 24H24V0H0V24z M0 24H24V0H0V24z M6 2H18L12 8zM21 21H3C1.9 21 1 20.1 1 19V7C1 5.9 1.9 5 3 5H7V7H3V19H21V7H17V5H21C22.1 5 23 5.9 23 7V19C23 20.1 22.1 21 21 21z" />
    <glyph glyph-name="ic_album"
      unicode="&#xF1BD;"
      horiz-adv-x="24" d=" M12 22C6.48 22 2 17.52 2 12S6.48 2 12 2S22 6.48 22 12S17.52 22 12 22zM12 7.5C9.51 7.5 7.5 9.51 7.5 12S9.51 16.5 12 16.5S16.5 14.49 16.5 12S14.49 7.5 12 7.5zM12 13C11.45 13 11 12.55 11 12S11.45 11 12 11S13 11.45 13 12S12.55 13 12 13z" />
    <glyph glyph-name="ic_av_timer"
      unicode="&#xF1BE;"
      horiz-adv-x="24" d=" M11 7C11 6.45 11.45 6 12 6S13 6.45 13 7S12.55 8 12 8S11 7.55 11 7zM11 21V17H13V18.92C16.39 18.43 19 15.53 19 12C19 8.13 15.87 5 12 5S5 8.13 5 12C5 13.68 5.59 15.22 6.58 16.42L12 11L13.41 12.41L6.61 19.21V19.19C4.42 17.55 3 14.95 3 12C3 7.03 7.02 3 12 3C16.97 3 21 7.03 21 12S16.97 21 12 21H11zM18 12C18 12.55 17.55 13 17 13S16 12.55 16 12S16.45 11 17 11S18 11.45 18 12zM6 12C6 11.45 6.45 11 7 11S8 11.45 8 12S7.55 13 7 13S6 12.55 6 12z" />
    <glyph glyph-name="ic_closed_caption"
      unicode="&#xF1BF;"
      horiz-adv-x="24" d=" M19 20H5C3.89 20 3 19.1 3 18V6C3 4.9 3.89 4 5 4H19C20.1 4 21 4.9 21 6V18C21 19.1 20.1 20 19 20zM11 13H9.5V13.5H7.5V10.5H9.5V11H11V10C11 9.45 10.55 9 10 9H7C6.45 9 6 9.45 6 10V14C6 14.55 6.45 15 7 15H10C10.55 15 11 14.55 11 14V13zM18 13H16.5V13.5H14.5V10.5H16.5V11H18V10C18 9.45 17.55 9 17 9H14C13.45 9 13 9.45 13 10V14C13 14.55 13.45 15 14 15H17C17.55 15 18 14.55 18 14V13z" />
    <glyph glyph-name="ic_equalizer"
      unicode="&#xF1C0;"
      horiz-adv-x="24" d=" M10 4H14V20H10V4zM4 4H8V12H4V4zM16 15V4H20V15H16z" />
    <glyph glyph-name="ic_explicit"
      unicode="&#xF1C1;"
      horiz-adv-x="24" d=" M19 21H5C3.9 21 3 20.1 3 19V5C3 3.9 3.9 3 5 3H19C20.1 3 21 3.9 21 5V19C21 20.1 20.1 21 19 21zM15 15H11V13H15V11H11V9H15V7H9V17H15V15z" />
    <glyph glyph-name="ic_fast_forward"
      unicode="&#xF1C2;"
      horiz-adv-x="24" d=" M4 6L12.5 12L4 18V6zM13 18V6L21.5 12L13 18z" />
    <glyph glyph-name="ic_fast_rewind"
      unicode="&#xF1C3;"
      horiz-adv-x="24" d=" M11 6V18L2.5 12L11 6zM11.5 12L20 6V18L11.5 12z" />
    <glyph glyph-name="ic_forward_10"
      unicode="&#xF1C4;"
      horiz-adv-x="24" d=" M24 0H0V24H24V0z M4 11C4 6.6 7.6 3 12 3S20 6.6 20 11H18C18 7.7 15.3 5 12 5S6 7.7 6 11S8.7 17 12 17V13L17 18L12 23V19C7.6 19 4 15.4 4 11zM10.8 8H10V11.3L9 11V11.7L10.8 12.3H10.9V8zM15.1 9.8C15.1 9.5 15.1 9.2 15 9L14.7 8.4S14.4 8.1 14.2 8.1S13.8 8 13.6 8S13.2 8 13 8.1S12.7 8.3 12.5 8.4S12.3 8.7 12.2 9S12.1 9.5 12.1 9.8V10.5C12.1 10.8 12.1 11.1 12.2 11.3L12.5 11.9S12.8 12.2 13 12.2S13.4 12.3 13.6 12.3S14 12.3 14.2 12.2S14.5 12 14.7 11.9S14.9 11.6 15 11.3S15.1 10.8 15.1 10.5V9.8zM14.3 10.6V11.1S14.2 11.3 14.2 11.4S14.1 11.5 14 11.6S13.8 11.7 13.7 11.7S13.5 11.7 13.4 11.6L13.2 11.4S13.1 11.2 13.1 11.1V9.1S13.2 8.9 13.2 8.8S13.3 8.7 13.4 8.6S13.6 8.5 13.7 8.5S13.9 8.5 14 8.6L14.2 8.8S14.3 9 14.3 9.1V10.6z" />
    <glyph glyph-name="ic_forward_30"
      unicode="&#xF1C5;"
      horiz-adv-x="24" d=" M24 0H0V24H24V0z M9.6 10.5H10C10.2 10.5 10.4 10.6 10.5 10.7S10.7 10.9 10.7 11.1V11.3S10.6 11.4 10.6 11.5S10.5 11.6 10.4 11.6H9.9S9.8 11.5 9.7 11.5S9.6 11.4 9.6 11.3V11.1H8.6C8.6 11.3 8.6 11.4 8.7 11.6S8.9 11.9 9 12S9.3 12.2 9.4 12.2S9.8 12.3 9.9 12.3C10.1 12.3 10.3 12.3 10.5 12.2S10.8 12.1 11 12S11.2 11.8 11.3 11.6S11.4 11.3 11.4 11.1V10.8S11.3 10.6 11.3 10.5S11.2 10.3 11.1 10.3S10.9 10.2 10.8 10.1C11 10 11.2 9.9 11.3 9.7S11.5 9.3 11.5 9.1C11.5 8.9 11.5 8.7 11.4 8.6S11.2 8.3 11.1 8.2S10.8 8 10.6 8S10.2 7.9 10 7.9C9.8 7.9 9.6 7.9 9.5 8S9.2 8.1 9 8.2S8.8 8.4 8.7 8.6S8.6 9 8.6 9.2H9.4V9S9.5 8.9 9.5 8.8S9.6 8.7 9.7 8.7H10.2S10.3 8.8 10.4 8.8S10.5 8.9 10.5 9V9.5S10.4 9.6 10.4 9.7S10.3 9.8 10.2 9.8H9.6V10.5zM15.3 9.8C15.3 9.5 15.3 9.2 15.2 9L14.9 8.4S14.6 8.1 14.4 8.1S14 8 13.8 8S13.4 8 13.2 8.1S12.9 8.3 12.7 8.4S12.5 8.7 12.4 9S12.3 9.5 12.3 9.8V10.5C12.3 10.8 12.3 11.1 12.4 11.3L12.7 11.9S13 12.2 13.2 12.2S13.6 12.3 13.8 12.3S14.2 12.3 14.4 12.2S14.7 12 14.9 11.9S15.1 11.6 15.2 11.3S15.3 10.8 15.3 10.5V9.8zM14.4 10.6V11.1S14.3 11.3 14.3 11.4S14.2 11.5 14.1 11.6S13.9 11.7 13.8 11.7S13.6 11.7 13.5 11.6L13.3 11.4S13.2 11.2 13.2 11.1V9.1S13.3 8.9 13.3 8.8S13.4 8.7 13.5 8.6S13.7 8.5 13.8 8.5S14 8.5 14.1 8.6L14.3 8.8S14.4 9 14.4 9.1V10.6zM4 11C4 6.6 7.6 3 12 3S20 6.6 20 11H18C18 7.7 15.3 5 12 5S6 7.7 6 11S8.7 17 12 17V13L17 18L12 23V19C7.6 19 4 15.4 4 11z" />
    <glyph glyph-name="ic_forward_5"
      unicode="&#xF1C6;"
      horiz-adv-x="24" d=" M24 0H0V24H24V0z M4 11C4 6.6 7.6 3 12 3S20 6.6 20 11H18C18 7.7 15.3 5 12 5S6 7.7 6 11S8.7 17 12 17V13L17 18L12 23V19C7.6 19 4 15.4 4 11zM10.7 10.1L10.9 12.3H13.3V11.6H11.6L11.5 10.7S11.6 10.7 11.6 10.8S11.7 10.8 11.7 10.9S11.8 10.9 11.9 10.9H12.1C12.3 10.9 12.5 10.9 12.6 10.8S12.9 10.6 13 10.5S13.2 10.2 13.3 10S13.4 9.6 13.4 9.4C13.4 9.2 13.4 9 13.3 8.9S13.2 8.6 13 8.4S12.7 8.2 12.5 8.1S12.1 8 11.9 8C11.7 8 11.5 8 11.4 8.1S11.1 8.2 10.9 8.3S10.7 8.5 10.6 8.7S10.5 9 10.5 9.2H11.3C11.3 9 11.4 8.9 11.5 8.8S11.7 8.7 11.9 8.7C12 8.7 12.1 8.7 12.2 8.8L12.4 9S12.5 9.2 12.5 9.3V9.9L12.4 10.1L12.2 10.3S12 10.4 11.9 10.4H11.7S11.6 10.4 11.5 10.3S11.4 10.3 11.4 10.2S11.3 10.1 11.3 10.1H10.7z" />
    <glyph glyph-name="ic_games"
      unicode="&#xF1C7;"
      horiz-adv-x="24" d=" M15 16.5V22H9V16.5L12 13.5L15 16.5zM7.5 15H2V9H7.5L10.5 12L7.5 15zM9 7.5V2H15V7.5L12 10.5L9 7.5zM16.5 15L13.5 12L16.5 9H22V15H16.5z" />
    <glyph glyph-name="ic_hd"
      unicode="&#xF1C8;"
      horiz-adv-x="24" d=" M19 21H5C3.89 21 3 20.1 3 19V5C3 3.9 3.89 3 5 3H19C20.1 3 21 3.9 21 5V19C21 20.1 20.1 21 19 21zM11 9H9.5V11H7.5V9H6V15H7.5V12.5H9.5V15H11V9zM13 15H17C17.55 15 18 14.55 18 14V10C18 9.45 17.55 9 17 9H13V15zM14.5 10.5H16.5V13.5H14.5V10.5z" />
    <glyph glyph-name="ic_hearing"
      unicode="&#xF1C9;"
      horiz-adv-x="24" d=" M17 4C16.71 4 16.44 4.06 16.24 4.15C15.53 4.52 15.03 5.03 14.53 6.53C14.02 8.09 13.06 8.82 12.14 9.53C11.35 10.14 10.53 10.77 9.82 12.06C9.29 13.02 9 14.07 9 15C9 17.8 11.2 20 14 20S19 17.8 19 15H21C21 18.93 17.93 22 14 22S7 18.93 7 15C7 13.74 7.38 12.35 8.07 11.1C8.98 9.45 10.05 8.62 10.92 7.95C11.73 7.33 12.31 6.88 12.63 5.9C13.23 4.08 14 3.06 15.36 2.35C15.87 2.12 16.43 2 17 2C19.21 2 21 3.79 21 6H19C19 4.9 18.1 4 17 4zM7.64 21.36L6.22 22.78C4.23 20.79 3 18.04 3 15S4.23 9.21 6.22 7.22L7.63 8.63C6.01 10.26 5 12.51 5 15S6.01 19.74 7.64 21.36zM11.5 15C11.5 13.62 12.62 12.5 14 12.5S16.5 13.62 16.5 15S15.38 17.5 14 17.5S11.5 16.38 11.5 15z" />
    <glyph glyph-name="ic_high_quality"
      unicode="&#xF1CA;"
      horiz-adv-x="24" d=" M19 20H5C3.89 20 3 19.1 3 18V6C3 4.9 3.89 4 5 4H19C20.1 4 21 4.9 21 6V18C21 19.1 20.1 20 19 20zM11 9H9.5V11H7.5V9H6V15H7.5V12.5H9.5V15H11V9zM18 10C18 9.45 17.55 9 17 9H16.25V7.5H14.75V9H14C13.45 9 13 9.45 13 10V14C13 14.55 13.45 15 14 15H17C17.55 15 18 14.55 18 14V10zM14.5 10.5H16.5V13.5H14.5V10.5z" />
    <glyph glyph-name="ic_library_add"
      unicode="&#xF1CB;"
      horiz-adv-x="24" d=" M4 18H2V4C2 2.9 2.9 2 4 2H18V4H4V18zM20 22H8C6.9 22 6 21.1 6 20V8C6 6.9 6.9 6 8 6H20C21.1 6 22 6.9 22 8V20C22 21.1 21.1 22 20 22zM19 13H15V9H13V13H9V15H13V19H15V15H19V13z" />
    <glyph glyph-name="ic_library_books"
      unicode="&#xF1CC;"
      horiz-adv-x="24" d=" M4 18H2V4C2 2.9 2.9 2 4 2H18V4H4V18zM20 22H8C6.9 22 6 21.1 6 20V8C6 6.9 6.9 6 8 6H20C21.1 6 22 6.9 22 8V20C22 21.1 21.1 22 20 22zM19 13H9V15H19V13zM15 9H9V11H15V9zM19 17H9V19H19V17z" />
    <glyph glyph-name="ic_library_music"
      unicode="&#xF1CD;"
      horiz-adv-x="24" d=" M20 22H8C6.9 22 6 21.1 6 20V8C6 6.9 6.9 6 8 6H20C21.1 6 22 6.9 22 8V20C22 21.1 21.1 22 20 22zM18 17H15V11.5C15 10.12 13.88 9 12.5 9S10 10.12 10 11.5S11.12 14 12.5 14C13.07 14 13.58 13.81 14 13.49V19H18V17zM4 18H2V4C2 2.9 2.9 2 4 2H18V4H4V18z" />
    <glyph glyph-name="ic_loop"
      unicode="&#xF1CE;"
      horiz-adv-x="24" d=" M12 20V23L8 19L12 15V18C15.31 18 18 15.31 18 12C18 10.99 17.75 10.03 17.3 9.2L18.76 7.74C19.54 8.97 20 10.43 20 12C20 16.42 16.42 20 12 20zM12 6C8.69 6 6 8.69 6 12C6 13.01 6.25 13.97 6.7 14.8L5.24 16.26C4.46 15.03 4 13.57 4 12C4 7.58 7.58 4 12 4V1L16 5L12 9V6z" />
    <glyph glyph-name="ic_mic"
      unicode="&#xF1CF;"
      horiz-adv-x="24" d=" M12 10C13.66 10 14.99 11.34 14.99 13L15 19C15 20.66 13.66 22 12 22S9 20.66 9 19V13C9 11.34 10.34 10 12 10zM17.3 13C17.3 10 14.76 7.9 12 7.9S6.7 10 6.7 13H5C5 9.59 7.72 6.77 11 6.28V3H13V6.28C16.28 6.76 19 9.58 19 13H17.3z" />
    <glyph glyph-name="ic_mic_none"
      unicode="&#xF1D0;"
      horiz-adv-x="24" d=" M12 10C13.66 10 14.99 11.34 14.99 13L15 19C15 20.66 13.66 22 12 22S9 20.66 9 19V13C9 11.34 10.34 10 12 10zM10.8 19.1C10.8 19.76 11.34 20.3 12 20.3C12.66 20.3 13.2 19.76 13.2 19.1L13.19 12.9C13.19 12.24 12.66 11.7 12 11.7C11.34 11.7 10.8 12.24 10.8 12.9V19.1zM17.3 13C17.3 10 14.76 7.9 12 7.9S6.7 10 6.7 13H5C5 9.59 7.72 6.77 11 6.28V3H13V6.28C16.28 6.76 19 9.58 19 13H17.3z" />
    <glyph glyph-name="ic_mic_off"
      unicode="&#xF1D1;"
      horiz-adv-x="24" d=" M19 13H17.3C17.3 12.26 17.14 11.57 16.87 10.95L18.1 9.72C18.66 10.7 19 11.81 19 13zM14.98 12.83C14.98 12.89 15 12.94 15 13V19C15 20.66 13.66 22 12 22S9 20.66 9 19V18.82L14.98 12.83zM4.27 21L3 19.73L9.01 13.72V13C9.01 11.34 10.34 10 12 10C12.22 10 12.44 10.03 12.65 10.08L14.31 8.42C13.6 8.09 12.81 7.9 12 7.9C9.24 7.9 6.7 10 6.7 13H5C5 9.59 7.72 6.77 11 6.28V3H13V6.28C13.91 6.41 14.77 6.73 15.54 7.18L19.73 3L21 4.27L4.27 21z" />
    <glyph glyph-name="ic_movie"
      unicode="&#xF1D2;"
      horiz-adv-x="24" d=" M18 20L20 16H17L15 20H13L15 16H12L10 20H8L10 16H7L5 20H4C2.9 20 2.01 19.1 2.01 18L2 6C2 4.9 2.9 4 4 4H20C21.1 4 22 4.9 22 6V20H18z" />
    <glyph glyph-name="ic_new_releases"
      unicode="&#xF1D3;"
      horiz-adv-x="24" d=" M23 12L20.56 14.78L20.9 18.46L17.29 19.28L15.4 22.46L12 21L8.6 22.46L6.71 19.28L3.1 18.47L3.44 14.79L1 12L3.44 9.22L3.1 5.53L6.71 4.71L8.6 1.53L12 3L15.4 1.54L17.29 4.72L20.9 5.54L20.56 9.22L23 12zM13 7H11V9H13V7zM13 11H11V17H13V11z" />
    <glyph glyph-name="ic_not_interested"
      unicode="&#xF1D4;"
      horiz-adv-x="24" d=" M12 22C6.48 22 2 17.52 2 12S6.48 2 12 2S22 6.48 22 12S17.52 22 12 22zM12 4C7.58 4 4 7.58 4 12C4 13.85 4.63 15.55 5.69 16.9L16.9 5.69C15.55 4.63 13.85 4 12 4zM18.31 7.1L7.1 18.31C8.45 19.37 10.15 20 12 20C16.42 20 20 16.42 20 12C20 10.15 19.37 8.45 18.31 7.1z" />
    <glyph glyph-name="ic_pause"
      unicode="&#xF1D5;"
      horiz-adv-x="24" d=" M6 5H10V19H6V5zM14 19V5H18V19H14z" />
    <glyph glyph-name="ic_pause_circle_filled"
      unicode="&#xF1D6;"
      horiz-adv-x="24" d=" M12 22C6.48 22 2 17.52 2 12S6.48 2 12 2S22 6.48 22 12S17.52 22 12 22zM11 8H9V16H11V8zM15 8H13V16H15V8z" />
    <glyph glyph-name="ic_pause_circle_outline"
      unicode="&#xF1D7;"
      horiz-adv-x="24" d=" M9 8H11V16H9V8zM12 22C6.48 22 2 17.52 2 12S6.48 2 12 2S22 6.48 22 12S17.52 22 12 22zM12 4C7.59 4 4 7.59 4 12S7.59 20 12 20S20 16.41 20 12S16.41 4 12 4zM13 8H15V16H13V8z" />
    <glyph glyph-name="ic_play_arrow"
      unicode="&#xF1D8;"
      horiz-adv-x="24" d=" M8 19V5L19 12z" />
    <glyph glyph-name="ic_play_circle_filled"
      unicode="&#xF1D9;"
      horiz-adv-x="24" d=" M12 22C6.48 22 2 17.52 2 12S6.48 2 12 2S22 6.48 22 12S17.52 22 12 22zM10 7.5V16.5L16 12L10 7.5z" />
    <glyph glyph-name="ic_play_circle_outline"
      unicode="&#xF1DA;"
      horiz-adv-x="24" d=" M10 7.5L16 12L10 16.5V7.5zM12 22C6.48 22 2 17.52 2 12S6.48 2 12 2S22 6.48 22 12S17.52 22 12 22zM12 4C7.59 4 4 7.59 4 12S7.59 20 12 20S20 16.41 20 12S16.41 4 12 4z" />
    <glyph glyph-name="ic_playlist_add"
      unicode="&#xF1DB;"
      horiz-adv-x="24" d=" M14 14H2V12H14V14zM14 18H2V16H14V18zM18 10V14H16V10H12V8H16V4H18V8H22V10H18zM2 8H10V10H2V8z" />
    <glyph glyph-name="ic_queue"
      unicode="&#xF1DC;"
      horiz-adv-x="24" d=" M4 18H2V4C2 2.9 2.9 2 4 2H18V4H4V18zM20 22H8C6.9 22 6 21.1 6 20V8C6 6.9 6.9 6 8 6H20C21.1 6 22 6.9 22 8V20C22 21.1 21.1 22 20 22zM19 13H15V9H13V13H9V15H13V19H15V15H19V13z" />
    <glyph glyph-name="ic_queue_music"
      unicode="&#xF1DD;"
      horiz-adv-x="24" d=" M15 18H3V16H15V18zM15 14H3V12H15V14zM3 8H11V10H3V8zM17 18V9.82C16.69 9.93 16.35 10 16 10C14.34 10 13 8.66 13 7S14.34 4 16 4S19 5.34 19 7V16H22V18H17z" />
    <glyph glyph-name="ic_radio"
      unicode="&#xF1DE;"
      horiz-adv-x="24" d=" M3.24 17.85C2.51 17.57 2 16.83 2 16V4C2 2.9 2.89 2 4 2H20C21.11 2 22 2.9 22 4V16C22 17.11 21.11 18 20 18H8.3L16.56 21.34L15.88 23L3.24 17.85zM7 4C5.34 4 4 5.34 4 7S5.34 10 7 10S10 8.66 10 7S8.66 4 7 4zM20 12H18V14H16V12H4V16H20V12z" />
    <glyph glyph-name="ic_recent_actors"
      unicode="&#xF1DF;"
      horiz-adv-x="24" d=" M21 19V5H23V19H21zM17 5H19V19H17V5zM14 19H2C1.45 19 1 18.55 1 18V6C1 5.45 1.45 5 2 5H14C14.55 5 15 5.45 15 6V18C15 18.55 14.55 19 14 19zM8 16.25C9.24 16.25 10.25 15.24 10.25 14S9.24 11.75 8 11.75S5.75 12.76 5.75 14S6.76 16.25 8 16.25zM12.5 7H3.5V7.75C3.5 9.25 6.5 10 8 10S12.5 9.25 12.5 7.75V7z" />
    <glyph glyph-name="ic_repeat"
      unicode="&#xF1E0;"
      horiz-adv-x="24" d=" M7 17H17V14L21 18L17 22V19H5V13H7V17zM17 7H7V10L3 6L7 2V5H19V11H17V7z" />
    <glyph glyph-name="ic_repeat_one"
      unicode="&#xF1E1;"
      horiz-adv-x="24" d=" M7 17H17V14L21 18L17 22V19H5V13H7V17zM17 7H7V10L3 6L7 2V5H19V11H17V7zM13 9V15H12L10 14V13H11.5V9H13z" />
    <glyph glyph-name="ic_replay_10"
      unicode="&#xF1E2;"
      horiz-adv-x="24" d=" M0 24H24V0H0V24z M12 19V23L7 18L12 13V17C15.3 17 18 14.3 18 11S15.3 5 12 5S6 7.7 6 11H4C4 6.6 7.6 3 12 3S20 6.6 20 11S16.4 19 12 19zM10.9 8H10V11.3L9 11V11.7L10.8 12.3H10.9V8zM15.2 9.8C15.2 9.5 15.2 9.2 15.1 9L14.8 8.4S14.5 8.1 14.3 8.1S13.9 8 13.7 8S13.3 8 13.1 8.1S12.8 8.3 12.6 8.4S12.4 8.7 12.3 9S12.2 9.5 12.2 9.8V10.5C12.2 10.8 12.2 11.1 12.3 11.3L12.6 11.9S12.9 12.2 13.1 12.2S13.5 12.3 13.7 12.3S14.1 12.3 14.3 12.2C14.5 12.1 14.6 12 14.8 11.9S15 11.6 15.1 11.3S15.2 10.8 15.2 10.5V9.8zM14.3 10.6V11.1S14.2 11.3 14.2 11.4S14.1 11.5 14 11.6S13.8 11.7 13.7 11.7S13.5 11.7 13.4 11.6L13.2 11.4S13.1 11.2 13.1 11.1V9.1S13.2 8.9 13.2 8.8S13.3 8.7 13.4 8.6S13.6 8.5 13.7 8.5S13.9 8.5 14 8.6L14.2 8.8S14.3 9 14.3 9.1V10.6z" />
    <glyph glyph-name="ic_replay"
      unicode="&#xF1E3;"
      horiz-adv-x="24" d=" M12 19V23L7 18L12 13V17C15.31 17 18 14.31 18 11S15.31 5 12 5S6 7.69 6 11H4C4 6.58 7.58 3 12 3S20 6.58 20 11S16.42 19 12 19z" />
    <glyph glyph-name="ic_replay_30"
      unicode="&#xF1E4;"
      horiz-adv-x="24" d=" M0 24H24V0H0V24z M12 19V23L7 18L12 13V17C15.3 17 18 14.3 18 11S15.3 5 12 5S6 7.7 6 11H4C4 6.6 7.6 3 12 3S20 6.6 20 11S16.4 19 12 19zM9.6 10.5H10C10.2 10.5 10.4 10.6 10.5 10.7S10.7 10.9 10.7 11.1V11.3S10.6 11.4 10.6 11.5S10.5 11.6 10.4 11.6H9.9S9.8 11.5 9.7 11.5S9.6 11.4 9.6 11.3V11.1H8.6C8.6 11.3 8.6 11.4 8.7 11.6S8.9 11.9 9 12S9.3 12.2 9.4 12.2S9.8 12.3 9.9 12.3C10.1 12.3 10.3 12.3 10.5 12.2S10.8 12.1 11 12S11.2 11.8 11.3 11.6S11.4 11.3 11.4 11.1V10.8S11.3 10.6 11.3 10.5S11.2 10.3 11.1 10.3S10.9 10.2 10.8 10.1C11 10 11.2 9.9 11.3 9.7S11.5 9.3 11.5 9.1C11.5 8.9 11.5 8.7 11.4 8.6S11.2 8.3 11.1 8.2S10.8 8 10.6 8S10.2 7.9 10 7.9C9.8 7.9 9.6 7.9 9.5 8S9.2 8.1 9 8.2S8.8 8.4 8.7 8.6S8.6 9 8.6 9.2H9.4V9S9.5 8.9 9.5 8.8S9.6 8.7 9.7 8.7H10.2S10.3 8.8 10.4 8.8S10.5 8.9 10.5 9V9.5S10.4 9.6 10.4 9.7S10.3 9.8 10.2 9.8H9.6V10.5zM15.3 9.8C15.3 9.5 15.3 9.2 15.2 9L14.9 8.4S14.6 8.1 14.4 8.1S14 8 13.8 8S13.4 8 13.2 8.1S12.9 8.3 12.7 8.4S12.5 8.7 12.4 9S12.3 9.5 12.3 9.8V10.5C12.3 10.8 12.3 11.1 12.4 11.3L12.7 11.9S13 12.2 13.2 12.2S13.6 12.3 13.8 12.3S14.2 12.3 14.4 12.2S14.7 12 14.9 11.9S15.1 11.6 15.2 11.3S15.3 10.8 15.3 10.5V9.8zM14.5 10.6V11.1C14.5 11.2 14.4 11.3 14.4 11.4S14.3 11.5 14.2 11.6S14 11.7 13.9 11.7S13.7 11.7 13.6 11.6L13.4 11.4S13.3 11.2 13.3 11.1V9.1S13.4 8.9 13.4 8.8S13.5 8.7 13.6 8.6S13.8 8.5 13.9 8.5S14.1 8.5 14.2 8.6L14.4 8.8S14.5 9 14.5 9.1V10.6z" />
    <glyph glyph-name="ic_replay_5"
      unicode="&#xF1E5;"
      horiz-adv-x="24" d=" M0 24H24V0H0V24z M12 19V23L7 18L12 13V17C15.3 17 18 14.3 18 11S15.3 5 12 5S6 7.7 6 11H4C4 6.6 7.6 3 12 3S20 6.6 20 11S16.4 19 12 19zM10.7 10.1L10.9 12.3H13.3V11.6H11.6L11.5 10.7S11.6 10.7 11.6 10.8S11.7 10.8 11.7 10.9S11.8 10.9 11.9 10.9H12.1C12.3 10.9 12.5 10.9 12.6 10.8S12.9 10.6 13 10.5S13.2 10.2 13.3 10S13.4 9.6 13.4 9.4C13.4 9.2 13.4 9 13.3 8.9S13.2 8.6 13 8.4S12.7 8.2 12.6 8.1S12.2 8 12 8C11.8 8 11.6 8 11.5 8.1S11.2 8.2 11 8.3S10.8 8.5 10.7 8.7S10.6 9 10.6 9.2H11.4C11.4 9 11.5 8.9 11.6 8.8S11.8 8.7 12 8.7C12.1 8.7 12.2 8.7 12.3 8.8L12.5 9S12.6 9.2 12.6 9.3V9.9L12.5 10.1L12.3 10.3S12.1 10.4 12 10.4H11.8S11.7 10.4 11.6 10.3S11.5 10.3 11.5 10.2S11.4 10.1 11.4 10.1H10.7z" />
    <glyph glyph-name="ic_shuffle"
      unicode="&#xF1E6;"
      horiz-adv-x="24" d=" M10.59 14.83L5.41 20L4 18.59L9.17 13.42L10.59 14.83zM14.5 20L16.54 17.96L4 5.41L5.41 4L17.96 16.54L20 14.5V20H14.5zM14.83 10.59L13.42 9.18L16.55 6.05L14.5 4H20V9.5L17.96 7.46L14.83 10.59z" />
    <glyph glyph-name="ic_skip_next"
      unicode="&#xF1E7;"
      horiz-adv-x="24" d=" M6 6L14.5 12L6 18V6zM16 18V6H18V18H16z" />
    <glyph glyph-name="ic_skip_previous"
      unicode="&#xF1E8;"
      horiz-adv-x="24" d=" M6 18H8V6H6zM9.5 12L18 6V18z" />
    <glyph glyph-name="ic_snooze"
      unicode="&#xF1E9;"
      horiz-adv-x="24" d=" M7.88 20.61L6.6 22.14L2 18.29L3.29 16.76L7.88 20.61zM22 18.28L17.4 22.14L16.11 20.61L20.71 16.75L22 18.28zM12 20C7.03 20 3 15.97 3 11S7.02 2 12 2C16.97 2 21 6.03 21 11S16.97 20 12 20zM12 4C8.13 4 5 7.13 5 11S8.13 18 12 18S19 14.87 19 11S15.87 4 12 4zM9 13H12.63L9 8.8V7H15V9H11.37L15 13.2V15H9V13z" />
    <glyph glyph-name="ic_sort_by_alpha"
      unicode="&#xF1EA;"
      horiz-adv-x="24" d=" M14.94 19.34H10.22L12.58 21.7zM10.25 4.63H14.91L12.58 2.3zM6.1 17.73L1.6 6.27H3.44L4.36 8.72H9.47L10.39 6.27H12.23L7.74 17.73H6.1zM4.97 10.36L6.91 15.54L8.85 10.36H4.97zM15.73 7.86H21.85V6.27H13.32V7.56L19.24 16.12H13.36V17.72H21.66V16.46L15.73 7.86z" />
    <glyph glyph-name="ic_stop"
      unicode="&#xF1EB;"
      horiz-adv-x="24" d=" M6 18H18V6H6z" />
    <glyph glyph-name="ic_subtitles"
      unicode="&#xF1EC;"
      horiz-adv-x="24" d=" M20 20H4C2.9 20 2 19.1 2 18V6C2 4.9 2.9 4 4 4H20C21.1 4 22 4.9 22 6V18C22 19.1 21.1 20 20 20zM4 12H8V10H4V12zM14 6H4V8H14V6zM20 6H16V8H20V6zM20 10H10V12H20V10z" />
    <glyph glyph-name="ic_surround_sound"
      unicode="&#xF1ED;"
      horiz-adv-x="24" d=" M20 20H4C2.9 20 2 19.1 2 18V6C2 4.9 2.9 4 4 4H20C21.1 4 22 4.9 22 6V18C22 19.1 21.1 20 20 20zM7.76 7.76L6.35 6.35C4.78 7.9 4 9.95 4 12C4 14.05 4.78 16.1 6.34 17.66L7.75 16.25C6.59 15.07 6 13.54 6 12S6.59 8.93 7.76 7.76zM12 8C9.79 8 8 9.79 8 12S9.79 16 12 16S16 14.21 16 12S14.21 8 12 8zM17.66 6.34L16.25 7.75C17.41 8.93 18 10.46 18 12S17.41 15.07 16.24 16.24L17.65 17.65C19.22 16.1 20 14.05 20 12C20 9.95 19.22 7.9 17.66 6.34zM12 14C10.9 14 10 13.1 10 12S10.9 10 12 10S14 10.9 14 12S13.1 14 12 14z" />
    <glyph glyph-name="ic_video_library"
      unicode="&#xF1EE;"
      horiz-adv-x="24" d=" M4 18H2V4C2 2.9 2.9 2 4 2H18V4H4V18zM20 22H8C6.9 22 6 21.1 6 20V8C6 6.9 6.9 6 8 6H20C21.1 6 22 6.9 22 8V20C22 21.1 21.1 22 20 22zM12 9.5V18.5L18 14L12 9.5z" />
    <glyph glyph-name="ic_videocam"
      unicode="&#xF1EF;"
      horiz-adv-x="24" d=" M17 13.5V17C17 17.55 16.55 18 16 18H4C3.45 18 3 17.55 3 17V7C3 6.45 3.45 6 4 6H16C16.55 6 17 6.45 17 7V10.5L21 6.5V17.5L17 13.5z" />
    <glyph glyph-name="ic_videocam_off"
      unicode="&#xF1F0;"
      horiz-adv-x="24" d=" M21 17.5L17 13.5V17C17 17.55 16.55 18 16 18H9.82L21 6.82V17.5zM3.27 22L2 20.73L4.73 18H4C3.45 18 3 17.55 3 17V7C3 6.45 3.45 6 4 6H16C16.21 6 16.39 6.08 16.54 6.18L19.73 3L21 4.27L3.27 22z" />
    <glyph glyph-name="ic_volume_down"
      unicode="&#xF1F1;"
      horiz-adv-x="24" d=" M18.5 12C18.5 13.77 17.48 15.29 16 16.03V7.98C17.48 8.71 18.5 10.23 18.5 12zM5 15V9H9L14 4V20L9 15H5z" />
    <glyph glyph-name="ic_volume_mute"
      unicode="&#xF1F2;"
      horiz-adv-x="24" d=" M7 15V9H11L16 4V20L11 15H7z" />
    <glyph glyph-name="ic_volume_off"
      unicode="&#xF1F3;"
      horiz-adv-x="24" d=" M16.5 12C16.5 13.77 15.48 15.29 14 16.03V13.82L16.45 11.37C16.48 11.57 16.5 11.78 16.5 12zM19 12C19 11.06 18.8 10.18 18.46 9.36L19.97 7.85C20.63 9.09 21 10.5 21 12C21 16.28 18.01 19.86 14 20.77V18.71C16.89 17.85 19 15.17 19 12zM4.27 21L3 19.73L7.73 15H3V9H7L12 4V10.73L16.25 6.48C15.58 5.96 14.83 5.55 14 5.3V3.24C15.38 3.55 16.63 4.19 17.69 5.05L19.73 3L21 4.27L12 13.27L4.27 21zM12 20L9.91 17.91L12 15.82V20z" />
    <glyph glyph-name="ic_volume_up"
      unicode="&#xF1F4;"
      horiz-adv-x="24" d=" M3 15V9H7L12 4V20L7 15H3zM16.5 12C16.5 13.77 15.48 15.29 14 16.03V7.98C15.48 8.71 16.5 10.23 16.5 12zM14 20.77V18.71C16.89 17.85 19 15.17 19 12S16.89 6.15 14 5.29V3.23C18.01 4.14 21 7.72 21 12S18.01 19.86 14 20.77z" />
    <glyph glyph-name="ic_web"
      unicode="&#xF1F5;"
      horiz-adv-x="24" d=" M20 20H4C2.9 20 2.01 19.1 2.01 18L2 6C2 4.9 2.9 4 4 4H20C21.1 4 22 4.9 22 6V18C22 19.1 21.1 20 20 20zM15 6H4V10H15V6zM15 11H4V15H15V11zM20 6H16V15H20V6z" />
    <glyph glyph-name="contact_mail"
      unicode="&#xF1F6;"
      horiz-adv-x="24" d=" M21 16V17L18 15L15 17V16L18 14L21 16zM22 21H2C0.9 21 0 20.1 0 19V5C0 3.9 0.9 3 2 3H22C23.1 3 23.99 3.9 23.99 5L24 19C24 20.1 23.1 21 22 21zM8 18C9.66 18 11 16.66 11 15S9.66 12 8 12S5 13.34 5 15S6.34 18 8 18zM14 6H2V7C2 9 6 10.1 8 10.1S14 9 14 7V6zM22 12H14V18H22V12z" />
    <glyph glyph-name="ic_business"
      unicode="&#xF1F7;"
      horiz-adv-x="24" d=" M12 17V21H2V3H22V17H12zM6 5H4V7H6V5zM6 9H4V11H6V9zM6 13H4V15H6V13zM6 17H4V19H6V17zM10 5H8V7H10V5zM10 9H8V11H10V9zM10 13H8V15H10V13zM10 17H8V19H10V17zM20 5H12V7H14V9H12V11H14V13H12V15H20V5zM18 13H16V11H18V13zM18 9H16V7H18V9z" />
    <glyph glyph-name="ic_call"
      unicode="&#xF1F8;"
      horiz-adv-x="24" d=" M6.62 13.21C8.06 10.38 10.38 8.07 13.21 6.62L15.41 8.82C15.68 9.09 16.08 9.18 16.43 9.06C17.55 8.69 18.76 8.49 20 8.49C20.55 8.49 21 8.04 21 7.49V4C21 3.45 20.55 3 20 3C10.61 3 3 10.61 3 20C3 20.55 3.45 21 4 21H7.5C8.05 21 8.5 20.55 8.5 20C8.5 18.75 8.7 17.55 9.07 16.43C9.18 16.08 9.1 15.69 8.82 15.41L6.62 13.21z" />
    <glyph glyph-name="ic_call_end"
      unicode="&#xF1F9;"
      horiz-adv-x="24" d=" M12 15C10.4 15 8.85 14.75 7.4 14.28V11.18C7.4 10.79 7.17 10.44 6.84 10.28C5.86 9.79 4.97 9.16 4.18 8.43C4 8.25 3.75 8.15 3.48 8.15C3.2 8.15 2.95 8.26 2.77 8.44L0.29 10.92C0.11 11.09 0 11.34 0 11.62C0 11.9 0.11 12.15 0.29 12.33C3.34 15.22 7.46 17 12 17S20.66 15.22 23.71 12.33C23.89 12.15 24 11.9 24 11.62C24 11.34 23.89 11.09 23.71 10.91L21.23 8.43C21.05 8.25 20.8 8.14 20.52 8.14C20.25 8.14 20 8.25 19.82 8.42C19.03 9.16 18.13 9.78 17.15 10.27C16.82 10.43 16.59 10.77 16.59 11.17V14.27C15.15 14.75 13.6 15 12 15z" />
    <glyph glyph-name="ic_call_made"
      unicode="&#xF1FA;"
      horiz-adv-x="24" d=" M9 19V17H15.59L4 5.41L5.41 4L17 15.59V9H19V19z" />
    <glyph glyph-name="ic_call_merge"
      unicode="&#xF1FB;"
      horiz-adv-x="24" d=" M17 3.59L18.41 5L15 8.41L13.59 7L17 3.59zM7.5 16H11V10.41L5.59 5L7 3.59L13 9.59V16H16.5L12 20.5L7.5 16z" />
    <glyph glyph-name="ic_call_missed"
      unicode="&#xF1FC;"
      horiz-adv-x="24" d=" M19.59 17L12 9.41L6.41 15H11V17H3V9H5V13.59L12 6.59L21 15.59z" />
    <glyph glyph-name="ic_call_received"
      unicode="&#xF1FD;"
      horiz-adv-x="24" d=" M20 18.59L18.59 20L7 8.41V15H5V5H15V7H8.41z" />
    <glyph glyph-name="ic_call_split"
      unicode="&#xF1FE;"
      horiz-adv-x="24" d=" M14 20L16.29 17.71L13.41 14.83L14.83 13.41L17.71 16.29L20 14V20zM10 20H4V14L6.29 16.29L11 11.59V4H13V12.41L7.71 17.71z" />
    <glyph glyph-name="ic_chat"
      unicode="&#xF1FF;"
      horiz-adv-x="24" d=" M20 22H4C2.9 22 2.01 21.1 2.01 20L2 2L6 6H20C21.1 6 22 6.9 22 8V20C22 21.1 21.1 22 20 22zM6 15H18V13H6V15zM14 10H6V12H14V10zM18 16H6V18H18V16z" />
    <glyph glyph-name="ic_chat_bubble"
      unicode="&#xF200;"
      horiz-adv-x="24" d=" M20 22H4C2.9 22 2 21.1 2 20V2L6 6H20C21.1 6 22 6.9 22 8V20C22 21.1 21.1 22 20 22z" />
    <glyph glyph-name="ic_chat_bubble_outline"
      unicode="&#xF201;"
      horiz-adv-x="24" d=" M20 22H4C2.9 22 2 21.1 2 20V2L6 6H20C21.1 6 22 6.9 22 8V20C22 21.1 21.1 22 20 22zM20 8H6L4 6V20H20V8z" />
    <glyph glyph-name="ic_clear_all"
      unicode="&#xF202;"
      horiz-adv-x="24" d=" M5 11H19V13H5V11zM3 7H17V9H3V7zM7 17V15H21V17H7z" />
    <glyph glyph-name="ic_comment"
      unicode="&#xF203;"
      horiz-adv-x="24" d=" M21.99 20C21.99 21.1 21.1 22 20 22H4C2.9 22 2 21.1 2 20V8C2 6.9 2.9 6 4 6H18L22 2L21.99 20zM18 10H6V12H18V10zM18 13H6V15H18V13zM18 16H6V18H18V16z" />
    <glyph glyph-name="ic_contact_phone"
      unicode="&#xF204;"
      horiz-adv-x="24" d=" M22 21H2C0.9 21 0 20.1 0 19V5C0 3.9 0.9 3 2 3H22C23.1 3 23.99 3.9 23.99 5L24 19C24 20.1 23.1 21 22 21zM8 18C9.66 18 11 16.66 11 15S9.66 12 8 12S5 13.34 5 15S6.34 18 8 18zM14 6H2V7C2 9 6 10.1 8 10.1S14 9 14 7V6zM17.85 10H19.49L21 8L19.01 6.01C17.7 6.99 16.73 8.39 16.28 10C16.1 10.64 16 11.31 16 12S16.1 13.36 16.28 14C16.73 15.62 17.7 17.01 19.01 17.99L21 16L19.49 14H17.85C17.63 13.37 17.5 12.7 17.5 12S17.63 10.63 17.85 10z" />
    <glyph glyph-name="ic_contacts"
      unicode="&#xF205;"
      horiz-adv-x="24" d=" M20 24H4V22H20V24zM4 0H20V2H4V0zM20 20H4C2.9 20 2 19.1 2 18V6C2 4.9 2.9 4 4 4H20C21.1 4 22 4.9 22 6V18C22 19.1 21.1 20 20 20zM12 17.25C13.24 17.25 14.25 16.24 14.25 15S13.24 12.75 12 12.75S9.75 13.76 9.75 15S10.76 17.25 12 17.25zM17 7H7V8.5C7 10.17 10.33 11 12 11S17 10.17 17 8.5V7z" />
    <glyph glyph-name="ic_dialer_sip"
      unicode="&#xF206;"
      horiz-adv-x="24" d=" M17 21H16V16H17V21zM15 19H13V20H15V21H12V18H14V17H12V16H15V19zM18 21V16H19V18H21V21H18zM20 19H19V20H20V19zM20 8.5C18.75 8.5 17.55 8.7 16.43 9.07C16.08 9.18 15.69 9.1 15.42 8.83L13.22 6.63C10.39 8.07 8.07 10.38 6.63 13.22L8.83 15.43C9.1 15.69 9.18 16.08 9.07 16.43C8.7 17.55 8.5 18.75 8.5 20C8.5 20.55 8.05 21 7.5 21H4C3.45 21 3 20.55 3 20C3 10.61 10.61 3 20 3C20.55 3 21 3.45 21 4V7.5C21 8.05 20.55 8.5 20 8.5z" />
    <glyph glyph-name="ic_dialpad"
      unicode="&#xF207;"
      horiz-adv-x="24" d=" M12 5C10.9 5 10 4.1 10 3S10.9 1 12 1S14 1.9 14 3S13.1 5 12 5zM6 23C4.9 23 4 22.1 4 21S4.9 19 6 19S8 19.9 8 21S7.1 23 6 23zM6 17C4.9 17 4 16.1 4 15S4.9 13 6 13S8 13.9 8 15S7.1 17 6 17zM6 11C4.9 11 4 10.1 4 9S4.9 7 6 7S8 7.9 8 9S7.1 11 6 11zM18 19C19.1 19 20 19.9 20 21S19.1 23 18 23S16 22.1 16 21S16.9 19 18 19zM12 11C10.9 11 10 10.1 10 9S10.9 7 12 7S14 7.9 14 9S13.1 11 12 11zM18 11C16.9 11 16 10.1 16 9S16.9 7 18 7S20 7.9 20 9S19.1 11 18 11zM18 17C16.9 17 16 16.1 16 15S16.9 13 18 13S20 13.9 20 15S19.1 17 18 17zM12 17C10.9 17 10 16.1 10 15S10.9 13 12 13S14 13.9 14 15S13.1 17 12 17zM12 23C10.9 23 10 22.1 10 21S10.9 19 12 19S14 19.9 14 21S13.1 23 12 23z" />
    <glyph glyph-name="ic_email"
      unicode="&#xF208;"
      horiz-adv-x="24" d=" M20 20H4C2.9 20 2.01 19.1 2.01 18L2 6C2 4.9 2.9 4 4 4H20C21.1 4 22 4.9 22 6V18C22 19.1 21.1 20 20 20zM20 16L12 11L4 16V18L12 13L20 18V16z" />
    <glyph glyph-name="ic_forum"
      unicode="&#xF209;"
      horiz-adv-x="24" d=" M21 18H19V9H6V7C6 6.45 6.45 6 7 6H18L22 2V17C22 17.55 21.55 18 21 18zM17 12V21C17 21.55 16.55 22 16 22H3C2.45 22 2 21.55 2 21V7L6 11H16C16.55 11 17 11.45 17 12z" />
    <glyph glyph-name="ic_import_export"
      unicode="&#xF20A;"
      horiz-adv-x="24" d=" M9 21L5 17.01H8V10H10V17.01H13L9 21zM16 6.99V14H14V6.99H11L15 3L19 6.99H16z" />
    <glyph glyph-name="ic_invert_colors_off"
      unicode="&#xF20B;"
      horiz-adv-x="24" d=" M20.65 3.13L18.3 5.48L12 11.77L8.44 15.34L7.02 16.75L4.27 19.5L3 18.23L5.78 15.45C3.23 12.31 3.42 7.69 6.34 4.76C7.9 3.2 9.95 2.42 12 2.42C13.79 2.42 15.57 3.01 17.03 4.2L19.73 1.5L21 2.77L20.65 3.13zM12 4.41C10.4 4.41 8.89 5.03 7.76 6.17C6.62 7.31 6 8.81 6 10.41C6 11.73 6.43 12.98 7.21 14.01L12 9.23V4.41zM12 18.9V14.32L19.25 7.06C20.62 10.02 20.09 13.63 17.65 16.07L12 21.73L8.3 18.03L9.71 16.62L12 18.9z" />
    <glyph glyph-name="ic_live_help"
      unicode="&#xF20C;"
      horiz-adv-x="24" d=" M19 22H5C3.89 22 3 21.1 3 20V6C3 4.9 3.89 4 5 4H9L12 1L15 4H19C20.1 4 21 4.9 21 6V20C21 21.1 20.1 22 19 22zM13 6H11V8H13V6zM15.07 13.75L14.17 12.83C13.45 12.1 13 11.5 13 10H11V10.5C11 11.6 11.45 12.6 12.17 13.33L13.41 14.59C13.78 14.95 14 15.45 14 16C14 17.1 13.1 18 12 18S10 17.1 10 16H8C8 18.21 9.79 20 12 20S16 18.21 16 16C16 15.12 15.64 14.32 15.07 13.75z" />
    <glyph glyph-name="ic_location_off"
      unicode="&#xF20D;"
      horiz-adv-x="24" d=" M12 17.5C13.38 17.5 14.5 16.38 14.5 15C14.5 14.26 14.17 13.61 13.67 13.15L17.3 9.52C18.28 11.38 19 13.32 19 15C19 18.87 15.87 22 12 22C10.02 22 8.24 21.17 6.96 19.85L10.15 16.66C10.61 17.18 11.26 17.5 12 17.5zM16.37 7.9L11.74 12.53L11.63 12.64L3.27 21L2 19.73L5.18 16.55C5.07 16.05 5 15.53 5 15C5 9.75 12 2 12 2S13.67 3.85 15.38 6.35L18.73 3L20 4.27L16.37 7.9z" />
    <glyph glyph-name="ic_location_on"
      unicode="&#xF20E;"
      horiz-adv-x="24" d=" M12 22C8.13 22 5 18.87 5 15C5 9.75 12 2 12 2S19 9.75 19 15C19 18.87 15.87 22 12 22zM12 12.5C10.62 12.5 9.5 13.62 9.5 15S10.62 17.5 12 17.5S14.5 16.38 14.5 15S13.38 12.5 12 12.5z" />
    <glyph glyph-name="ic_message"
      unicode="&#xF20F;"
      horiz-adv-x="24" d=" M20 22H4C2.9 22 2.01 21.1 2.01 20L2 2L6 6H20C21.1 6 22 6.9 22 8V20C22 21.1 21.1 22 20 22zM18 10H6V12H18V10zM18 13H6V15H18V13zM18 16H6V18H18V16z" />
    <glyph glyph-name="ic_no_sim"
      unicode="&#xF210;"
      horiz-adv-x="24" d=" M18.99 19C18.99 20.1 18.1 21 17 21H10L7.66 18.66L19 7.32L18.99 19zM3.65 20.12L2.38 18.85L5 16.23V5C5 3.9 5.9 3 7 3H17.01C17.36 3 17.68 3.1 17.97 3.26L19.85 1.38L21.12 2.65L3.65 20.12z" />
    <glyph glyph-name="ic_phone"
      unicode="&#xF211;"
      horiz-adv-x="24" d=" M6.62 13.21C8.06 10.38 10.38 8.07 13.21 6.62L15.41 8.82C15.68 9.09 16.08 9.18 16.43 9.06C17.55 8.69 18.76 8.49 20 8.49C20.55 8.49 21 8.04 21 7.49V4C21 3.45 20.55 3 20 3C10.61 3 3 10.61 3 20C3 20.55 3.45 21 4 21H7.5C8.05 21 8.5 20.55 8.5 20C8.5 18.75 8.7 17.55 9.07 16.43C9.18 16.08 9.1 15.69 8.82 15.41L6.62 13.21z" />
    <glyph glyph-name="ic_phonelink_erase"
      unicode="&#xF212;"
      horiz-adv-x="24" d=" M13 15.8L12 16.8L8 12.8L4 16.8L3 15.8L7 11.8L3 7.8L4 6.8L8 10.8L12 6.8L13 7.8L9 11.8L13 15.8zM19 23H9C7.9 23 7 22.1 7 21V18H9V20H19V4H9V6H7V3C7 1.9 7.9 1 9 1H19C20.1 1 21 1.9 21 3V21C21 22.1 20.1 23 19 23z" />
    <glyph glyph-name="ic_phonelink_lock"
      unicode="&#xF213;"
      horiz-adv-x="24" d=" M19 23H9C7.9 23 7 22.1 7 21V18H9V20H19V4H9V6H7V3C7 1.9 7.9 1 9 1H19C20.1 1 21 1.9 21 3V21C21 22.1 20.1 23 19 23zM10.8 13V14.5C10.8 15.9 9.4 17 8 17S5.2 15.9 5.2 14.5V13C4.6 13 4 12.4 4 11.8V8.3C4 7.6 4.6 7 5.2 7H10.7C11.4 7 12 7.6 12 8.2V11.7C12 12.4 11.4 13 10.8 13zM9.5 13H6.5V14.5C6.5 15.3 7.2 15.8 8 15.8S9.5 15.3 9.5 14.5V13z" />
    <glyph glyph-name="ic_phonelink_ring"
      unicode="&#xF214;"
      horiz-adv-x="24" d=" M20.1 16.3L19.1 15.3C20.9 13.5 20.9 10.7 19.1 8.8L20.1 7.8C22.6 10.1 22.6 13.9 20.1 16.3zM18 14.2L17 13.2C17.5 12.5 17.5 11.6 17 10.9L18 9.9C19.2 11.1 19.2 12.9 18 14.2zM14 23H4C2.9 23 2 22.1 2 21V3C2 1.9 2.9 1 4 1H14C15.1 1 16 1.9 16 3V21C16 22.1 15.1 23 14 23zM14 4H4V20H14V4z" />
    <glyph glyph-name="ic_phonelink_setup"
      unicode="&#xF215;"
      horiz-adv-x="24" d=" M11.8 11.5V12.5L12.9 13.3C13 13.4 13 13.5 13 13.6L12 15.3C11.9 15.4 11.8 15.5 11.7 15.4L10.4 15C10.1 15.2 9.8 15.4 9.5 15.5L9.3 16.8C9.3 16.9 9.2 17 9 17H7C6.9 17 6.8 16.9 6.7 16.8L6.5 15.5C6.2 15.4 5.9 15.2 5.6 15L4.3 15.5C4.2 15.5 4.1 15.5 4 15.4L3 13.7C2.9 13.6 3 13.5 3.1 13.4L4.2 12.6V11.6L3.1 10.8C3 10.6 3 10.5 3 10.4L4 8.7C4.1 8.6 4.2 8.5 4.3 8.6L5.7 9C6 8.8 6.3 8.6 6.6 8.5L6.8 7.2C6.7 7.1 6.9 7 7 7H9C9.1 7 9.2 7.1 9.3 7.2L9.5 8.5C9.8 8.6 10.1 8.8 10.4 9L11.7 8.5C11.8 8.5 11.9 8.5 12 8.6L13 10.3C13.1 10.4 13 10.5 12.9 10.6L11.8 11.5zM8 10C6.9 10 6 10.9 6 12S6.9 14 8 14S10 13.1 10 12S9.1 10 8 10zM19 23H9C7.9 23 7 22.1 7 21V18H9V20H19V4H9V6H7V3C7 1.9 7.9 1 9 1H19C20.1 1 21 1.9 21 3V21C21 22.1 20.1 23 19 23z" />
    <glyph glyph-name="ic_portable_wifi_off"
      unicode="&#xF216;"
      horiz-adv-x="24" d=" M17.56 9.76C17.84 10.45 18 11.21 18 12C18 15.31 15.31 18 12 18C11.21 18 10.45 17.84 9.76 17.56L11.38 15.94C11.58 15.97 11.79 16 12 16C14.21 16 16 14.21 16 12C16 11.79 15.98 11.58 15.95 11.37L17.56 9.76zM12 20C16.42 20 20 16.42 20 12C20 10.65 19.65 9.38 19.05 8.26L20.52 6.79C21.46 8.31 22 10.09 22 12C22 17.52 17.52 22 12 22C10.09 22 8.31 21.45 6.79 20.53L8.25 19.07C9.37 19.66 10.65 20 12 20zM3.27 21.5L2 20.23L4.1 18.13C2.79 16.43 2 14.31 2 12C2 8.3 4.01 5.08 6.99 3.35L7.99 5.08C5.61 6.47 4 9.04 4 12C4 13.76 4.57 15.38 5.53 16.69L6.96 15.25C6.36 14.32 6 13.2 6 12C6 9.78 7.21 7.85 9 6.81L10 8.55C8.81 9.25 8 10.52 8 12C8 12.65 8.17 13.25 8.44 13.79L10.02 12.21L10 12C10 10.9 10.9 10 12 10L12.21 10.02L12.22 10.01L19.73 2.5L21 3.77L4.27 20.5L3.27 21.5z" />
    <glyph glyph-name="ic_present_to_all"
      unicode="&#xF217;"
      horiz-adv-x="24" d=" M21 21H3C1.89 21 1 20.11 1 19V5C1 3.89 1.89 3 3 3H21C22.11 3 23 3.89 23 5V19C23 20.11 22.11 21 21 21zM21 4.98H3V19.02H21V4.98zM10 12H8L12 16L16 12H14V8H10V12z" />
    <glyph glyph-name="ic_ring_volume"
      unicode="&#xF218;"
      horiz-adv-x="24" d=" M23.71 7.33C20.66 10.22 16.54 12 12 12C7.46 12 3.34 10.22 0.29 7.33C0.11 7.15 0 6.9 0 6.62C0 6.34 0.11 6.09 0.29 5.91L2.77 3.43C2.95 3.25 3.2 3.14 3.48 3.14C3.75 3.14 4 3.25 4.18 3.42C4.97 4.16 5.87 4.78 6.84 5.27C7.17 5.43 7.4 5.77 7.4 6.17V9.27C8.85 9.75 10.4 10 12 10S15.15 9.75 16.6 9.28V6.18C16.6 5.79 16.83 5.44 17.16 5.28C18.14 4.79 19.03 4.16 19.82 3.43C20 3.25 20.25 3.15 20.52 3.15C20.8 3.15 21.05 3.26 21.23 3.44L23.71 5.92C23.89 6.1 24 6.35 24 6.63C24 6.9 23.89 7.15 23.71 7.33zM21.16 17.74L19.75 19.15L16.19 15.6L17.6 14.19S21.05 17.71 21.16 17.74zM13 22H11V17H13V22zM6.4 14.19L7.81 15.6L4.26 19.16L2.84 17.74C2.95 17.71 6.4 14.19 6.4 14.19z" />
    <glyph glyph-name="ic_speaker_phone"
      unicode="&#xF219;"
      horiz-adv-x="24" d=" M7 16.93L8.43 15.5C9.34 16.41 10.61 16.98 12 16.98S14.66 16.41 15.57 15.5L17 16.93C15.72 18.21 13.95 19 12 19S8.28 18.21 7 16.93zM12 23C8.98 23 6.24 21.77 4.25 19.79L5.66 18.38C7.28 20 9.53 21 12 21S16.72 20 18.34 18.38L19.75 19.79C17.76 21.77 15.02 23 12 23zM14.86 13.99L9.14 14C8.51 14 8 13.49 8 12.86V3.15C8 2.52 8.51 2.01 9.14 2.01H14.85C15.48 2.01 15.99 2.52 15.99 3.15V12.86C16 13.49 15.49 13.99 14.86 13.99zM15 4H9V12H15V4z" />
    <glyph glyph-name="ic_stay_current_landscape"
      unicode="&#xF21A;"
      horiz-adv-x="24" d=" M1.01 17L1 7C1 5.9 1.9 5 3 5H21C22.1 5 23 5.9 23 7V17C23 18.1 22.1 19 21 19H3C1.9 19 1.01 18.1 1.01 17zM19 17V7H5V17H19z" />
    <glyph glyph-name="ic_stay_current_portrait"
      unicode="&#xF21B;"
      horiz-adv-x="24" d=" M17 22.99L7 23C5.9 23 5.01 22.1 5.01 21V3C5.01 1.9 5.9 1 7 1H17C18.1 1 19 1.9 19 3V21C19 22.1 18.1 22.99 17 22.99zM17 5H7V19H17V5z" />
    <glyph glyph-name="ic_stay_primary_landscape"
      unicode="&#xF21C;"
      horiz-adv-x="24" d=" M1.01 17L1 7C1 5.9 1.9 5 3 5H21C22.1 5 23 5.9 23 7V17C23 18.1 22.1 19 21 19H3C1.9 19 1.01 18.1 1.01 17zM19 17V7H5V17H19z" />
    <glyph glyph-name="ic_stay_primary_portrait"
      unicode="&#xF21D;"
      horiz-adv-x="24" d=" M17 22.99L7 23C5.9 23 5.01 22.1 5.01 21V3C5.01 1.9 5.9 1 7 1H17C18.1 1 19 1.9 19 3V21C19 22.1 18.1 22.99 17 22.99zM17 5H7V19H17V5z" />
    <glyph glyph-name="ic_swap_calls"
      unicode="&#xF21E;"
      horiz-adv-x="24" d=" M18 20L14 16H17V9C17 7.9 16.1 7 15 7S13 7.9 13 9V16C13 18.21 11.21 20 9 20S5 18.21 5 16V9H2L6 5L10 9H7V16C7 17.1 7.9 18 9 18S11 17.1 11 16V9C11 6.79 12.79 5 15 5S19 6.79 19 9V16H22L18 20z" />
    <glyph glyph-name="ic_textsms"
      unicode="&#xF21F;"
      horiz-adv-x="24" d=" M20 22H4C2.9 22 2.01 21.1 2.01 20L2 2L6 6H20C21.1 6 22 6.9 22 8V20C22 21.1 21.1 22 20 22zM9 13H7V15H9V13zM13 13H11V15H13V13zM17 13H15V15H17V13z" />
    <glyph glyph-name="ic_voicemail"
      unicode="&#xF220;"
      horiz-adv-x="24" d=" M18.5 18C15.46 18 13 15.54 13 12.5C13 11.17 13.47 9.95 14.26 9H9.74C10.53 9.95 11 11.17 11 12.5C11 15.54 8.54 18 5.5 18S0 15.54 0 12.5S2.46 7 5.5 7H18.5C21.54 7 24 9.46 24 12.5S21.54 18 18.5 18zM5.5 9C3.57 9 2 10.57 2 12.5S3.57 16 5.5 16S9 14.43 9 12.5S7.43 9 5.5 9zM18.5 9C16.57 9 15 10.57 15 12.5S16.57 16 18.5 16S22 14.43 22 12.5S20.43 9 18.5 9z" />
    <glyph glyph-name="ic_vpn_key"
      unicode="&#xF221;"
      horiz-adv-x="24" d=" M12.65 14C11.83 16.33 9.61 18 7 18C3.69 18 1 15.31 1 12S3.69 6 7 6C9.61 6 11.83 7.67 12.65 10H17V6H21V10H23V14H12.65zM7 10C5.9 10 5 10.9 5 12S5.9 14 7 14S9 13.1 9 12S8.1 10 7 10z" />
    </font>
</defs>
</svg>
